<svg id="doodle2" xmlns="http://www.w3.org/2000/svg" xmlns:xlink="http://www.w3.org/1999/xlink" width="93.051" height="94.231" viewBox="0 0 93.051 94.231">
  <defs>
    <clipPath id="clip-path">
      <rect id="Rectangle_317" data-name="Rectangle 317" width="58.333" height="74.277" fill="#27afe8"/>
    </clipPath>
  </defs>
  <g id="Groupe_754" data-name="Groupe 754" transform="translate(0 39.032) rotate(-42)">
    <g id="Groupe_753" data-name="Groupe 753" transform="translate(0 0)" clip-path="url(#clip-path)">
      <path id="Tracé_799" data-name="Tracé 799" d="M7.954,32.935Q9.018,37,10.082,41.061q3.723,14.208,7.443,28.418c.519,1.977,1.375,4.3,3.371,4.735,1.666.365,3.341-.908,4-2.476a10.249,10.249,0,0,0,.375-5.037c-1.205-11.618-4.77-22.839-8.319-33.969C14.1,23.783,11.156,14.647,5.513,7.14q.943,3.153,1.886,6.3a12.816,12.816,0,0,1-2.552-6.59A2.505,2.505,0,0,0,4.233,5.62L0,0Q2.725,12.613,5.924,25.121q1,3.911,2.03,7.814M24.3,71.513a.48.48,0,0,1,0-.767.478.478,0,0,1,0,.767M24.271,65.7a.708.708,0,0,1-.105,1.149l-.044-.18a1.269,1.269,0,0,1,.15-.969m-1.223,2.462c.214-.25.769-.064.642.238a5.207,5.207,0,0,0-.352,2.758,1.344,1.344,0,0,1-.05.92.469.469,0,0,1-.394.2.3.3,0,0,1-.323-.232c.391-.032.372-.629.185-.973s-.38-.856-.044-1.066c.278-.172.285-.569.24-.9a1.191,1.191,0,0,1,.1-.946M22.755,57.6c.163.011.159.314,0,.331-.163-.017-.165-.32,0-.331m-.442,6.366a7.728,7.728,0,0,1-.394-4.14,14.167,14.167,0,0,1,.667,4.336.308.308,0,0,1-.273-.2m-.121-10.4a.658.658,0,0,1-.206.526.512.512,0,0,1-.185-.583h-.023c.026-.191.365-.134.413.056m-.976,3.611a1.214,1.214,0,0,0,.571.572c-.052.229-.5.037-.363-.159l-.049-.049a.139.139,0,0,1-.075.024c-.162,0-.279-.339-.084-.389m-1.3-5.837a11.469,11.469,0,0,1,1.074,4.711A2.416,2.416,0,0,1,20.363,55a8.336,8.336,0,0,1-.442-3.66m-.386-1.75-.012.066a.359.359,0,0,1-.3.148.64.64,0,0,1-.581-.426,1.559,1.559,0,0,1,.24-1.1c.218.439.441.879.658,1.313m-.879-8.869c-.011.163-.314.162-.33,0,.015-.16.319-.165.33,0m-.725-1.872a.656.656,0,0,1-.206.525.512.512,0,0,1-.183-.583h-.024c.027-.191.365-.134.413.058m-.92,1.317c.061.18.117.36.177.54l-.023.116a.231.231,0,0,1-.082.015c-.3,0-.423-.63-.072-.671m.282,1.558a.937.937,0,0,1,.386.514,2.65,2.65,0,0,1,.207,1.574c-.117.513.273.982.566,1.422s.465,1.111.041,1.426c-1.545-.842-.348-3.68-1.741-4.752a.382.382,0,0,1,.54-.185m-.949-2.555v.014a.491.491,0,0,1-.207.586,1.671,1.671,0,0,1,.023-1.6,1.135,1.135,0,0,1,.185,1M15.765,32H15.8a.973.973,0,0,1-.017,1.194A.976.976,0,0,1,15.765,32M12.59,27.4a7.578,7.578,0,0,1,1.561,3.625c.185.8.372,1.593.557,2.389.034.145.067.288.1.432a3.428,3.428,0,0,1,.973,3.67q-.577-1.616-1.153-3.233c-.128-.355-.252-.709-.38-1.066q-.76-2.144-1.49-4.3A2.461,2.461,0,0,1,12.59,27.4M12.3,21.554a.481.481,0,0,1,0,.767.476.476,0,0,1,0-.767m.038,5.075a6.54,6.54,0,0,1-.953-2.763,2.331,2.331,0,0,1,.953,2.763M8.525,15.551,9.2,17.162c.36.867.725,1.738,1.043,2.624a28.227,28.227,0,0,1,.935,3.194c-.455-.026-.673-.555-.786-.995q-.506-1.97-1.016-3.937a1.811,1.811,0,0,1-.853-2.5" transform="translate(0 -0.001)" fill="#27afe8"/>
      <path id="Tracé_800" data-name="Tracé 800" d="M19.874,20.976c-1.167,5.292-1.114,10.77-1.054,16.186q.05,4.471.1,8.938c.046,4.174.244,8.761,3.062,11.843,1.608-.442,3.5.124,4.882-.807,1.434-.964,1.55-2.992,1.519-4.718q-.158-8.762-.314-17.518c-.117-6.386-.267-12.944-2.719-18.837-.079,1.75-.127,3.5-.151,5.252a17.52,17.52,0,0,1-.618-10.32,21.918,21.918,0,0,0-4.7,9.982m6.206,34.28a.987.987,0,0,1-.6-1.1,2.829,2.829,0,0,1,.606-1.213,2.339,2.339,0,0,1,.136,1.365v0a1.2,1.2,0,0,1-.143.943M27.2,52.574a.657.657,0,0,1-.207-.522c.05-.191.387-.247.413-.055h-.021a.5.5,0,0,1-.185.577m.185-9.887-.128.162a1.223,1.223,0,0,1-.012-1.547,2.322,2.322,0,0,1,.14,1.385m-.5-13.028c.075.54.154,1.077.229,1.617l.09-.008a.489.489,0,0,1-.02.789,1.868,1.868,0,0,1-.3-2.4m-1.066,21.4a.337.337,0,0,1-.117-.021.455.455,0,0,1-.255-.368,2.426,2.426,0,0,1,.339-1.138c.139-.375.064-.928-.33-1,.227-.206.453-.412.679-.615.047.743.093,1.49.142,2.238.024.375-.139.9-.458.9m.4-4.5-.128.162a1.221,1.221,0,0,1-.011-1.547,2.3,2.3,0,0,1,.139,1.385m-.192-3.225a4.305,4.305,0,0,1-.157-2c.18-.059.314.169.354.352a2.7,2.7,0,0,1-.2,1.645m.2-10.709q.078,3.165-.053,6.332a1.07,1.07,0,0,1-.923-.935,3.082,3.082,0,0,1,.186-1.4c.384-1.3-.394-2.688-.13-4.009.07-.343.381-.743.69-.58.2.107.226.369.23.59m-.609-2.177-.136-.154a2.427,2.427,0,0,1,.143-1.388,1.23,1.23,0,0,1-.008,1.542m-.372-8.165c.183.571.365,1.138.545,1.707a1.3,1.3,0,0,1,.082.748.5.5,0,0,1-.438.346.289.289,0,0,1-.156-.043.618.618,0,0,1-.217-.514,7.506,7.506,0,0,1,.183-2.244" transform="translate(9.877 5.777)" fill="#27afe8"/>
      <path id="Tracé_801" data-name="Tracé 801" d="M42.339,16.478a28.529,28.529,0,0,0-8.313,11.829,61.694,61.694,0,0,0-3.411,14.174,7.165,7.165,0,0,0,.282,4.25c.653,1.288,2.462,2.079,3.591,1.182a3.722,3.722,0,0,0,1.045-1.968q3.485-12.123,5.873-24.518c-.577,1.069-1.156,2.143-1.735,3.213-.371-1.889,1.2-3.536,2.012-5.281a7.124,7.124,0,0,0,.654-2.88M34.432,45.626a.5.5,0,0,1-.188.583A.931.931,0,0,1,34.287,45c.075.2.149.394.224.589Zm1.532-5.094a7.326,7.326,0,0,1-1.005,3.1,21.1,21.1,0,0,1,.24-3.146,1.657,1.657,0,0,1,.658-1.291,3.186,3.186,0,0,1,.108,1.332m1.3-5.307q-.3,1.368-.6,2.732c-.049.236-.183.532-.4.532a.416.416,0,0,1-.058-.006c-.33-.072-.2-.567-.011-.841s.252-.8-.082-.812c.255-1.138.511-2.279.766-3.416.586.316.525,1.159.387,1.809m.859-3.123a.879.879,0,0,1-.452.506.427.427,0,0,1-.139.023.371.371,0,0,1-.394-.305.6.6,0,0,1,.1-.311c.311-.574.619-1.149.931-1.724a2.437,2.437,0,0,1-.044,1.811m1.382-4.934a1.38,1.38,0,0,1-1.233.841,5.165,5.165,0,0,0,.935-2.3,1.375,1.375,0,0,1,.3,1.46m.946-7.335c-.163-.012-.165-.317,0-.33.163.012.162.316,0,.33" transform="translate(15.994 8.659)" fill="#27afe8"/>
    </g>
  </g>
</svg>
