<svg id="doodle" xmlns="http://www.w3.org/2000/svg" xmlns:xlink="http://www.w3.org/1999/xlink" width="58.415" height="58.415" viewBox="0 0 58.415 58.415">
  <defs>
    <clipPath id="clip-path">
      <rect id="Rectangle_318" data-name="Rectangle 318" width="42.716" height="39.896" fill="#fff"/>
    </clipPath>
  </defs>
  <g id="Groupe_756" data-name="Groupe 756" transform="translate(0 30.204) rotate(-45)">
    <g id="Groupe_755" data-name="Groupe 755" transform="translate(0 0)" clip-path="url(#clip-path)">
      <path id="Tracé_802" data-name="Tracé 802" d="M0,6.168c3.213,4.071,9.072,4.682,14.257,4.718,6.291.047,12.579-.267,18.864-.58,3.3-.165,6.788-.384,9.568-2.187.142-.438-.285-.88-.735-.994a3.4,3.4,0,0,0-.788-.058,3.724,3.724,0,0,1-.592-.022A3.638,3.638,0,0,1,38.036,4.7a11.412,11.412,0,0,0-1.658-3.2C35.233.266,33.486,0,31.751,0c-.484,0-.966.021-1.435.047q-3.281.187-6.554.368C22.619.482,21.14.858,21.068,2a1.166,1.166,0,0,1-1.353-.224c.269.025.711-.236.568-.568C20.07.723,19.4.69,18.876.738q-3.386.3-6.766.6c-1.235.11-2.6.282-3.407,1.223A1.414,1.414,0,0,0,6.53,2.345l.938.482A8.741,8.741,0,0,0,0,6.168M16.889,1.723c.312-.007.68.018.847.278s-.218.7-.413.453l-.138.14a5.378,5.378,0,0,0-1.71-.6,2.847,2.847,0,0,1,1.413-.267m-2.676.052,0,.018a1.007,1.007,0,0,1,.96.2,2.344,2.344,0,0,0-.984.519.459.459,0,0,1,.019-.735" transform="translate(0 0)" fill="#fff"/>
      <path id="Tracé_803" data-name="Tracé 803" d="M26.3,20.049a9.032,9.032,0,0,0-4.155-4.572,26.835,26.835,0,0,0-5.883-2.228q-1.516-.443-3.038-.883a25.353,25.353,0,0,0-6.9-1.267,8.559,8.559,0,0,0-4.807,1.3.829.829,0,0,0-.407.47.831.831,0,0,0,.165.589c2.431,4.121,7.361,5.923,11.905,7.426,5.408,1.785,11.083,3.6,16.7,2.67a1.092,1.092,0,0,1,.886-.92c-.89-1.552-3.864-.9-4.473-2.585M9.531,12.574c-.157-.012-.159-.31,0-.321.16.01.157.309,0,.321m11.144,2.854c.013-.159.307-.16.318,0-.01.159-.3.153-.318,0m7.7,6.6a.469.469,0,0,1,0,.746.464.464,0,0,1,0-.746" transform="translate(0.533 5.372)" fill="#fff"/>
      <path id="Tracé_804" data-name="Tracé 804" d="M6,26.323a17.285,17.285,0,0,0,3.387,2.553,1.712,1.712,0,0,0,1.444.28,12.657,12.657,0,0,0,11.021,1.483,1.331,1.331,0,0,0,.856-.607c.145-.331-.144-.821-.487-.7a1.971,1.971,0,0,1-2.088-1.107,10.257,10.257,0,0,0-1.315-2.176,2.478,2.478,0,0,0-2.11-.647q-2.591-1.238-5.185-2.471a1.488,1.488,0,0,1-.72-.559c-.142-.278-.012-.7.3-.73l-.957-.57L9.4,21.8c-1.7-2.707-5.228-3.48-8.38-4.01a.517.517,0,0,0-.086-.007c-.177,0-.377.074-.325.226A19.917,19.917,0,0,0,6,26.323" transform="translate(0.288 8.609)" fill="#fff"/>
    </g>
  </g>
</svg>
