<svg xmlns="http://www.w3.org/2000/svg" width="70.054" height="70.041" viewBox="0 0 70.054 70.041">
  <g id="Composant_9_1" data-name="Composant 9 – 1" transform="matrix(0.191, 0.982, -0.982, 0.191, 58.656, 0)">
    <path id="Tracé_171" data-name="Tracé 171" d="M363.05,290.426c2.954-.81,6.347.127,9.165,1.057a51.039,51.039,0,0,1,9.739,4.552,87.628,87.628,0,0,1,16.492,12.592,76.008,76.008,0,0,1,11.522,14.834,65.287,65.287,0,0,1,4.633,9.121c.151.363.308.745.465,1.14.117-1.353.239-2.705.407-4.053a21.425,21.425,0,0,1,1.38-5.942,15.147,15.147,0,0,1,1.442-2.819c1.13-1.6,2.344-1.5,2.655-1.364,1.864.844.513,3.451.063,4.767a27.9,27.9,0,0,0-1.069,6.486c-.487,5.7-.109,12.955-3.192,18a2.477,2.477,0,0,1-4.083,0,49.8,49.8,0,0,0-8.838-9.551,40.661,40.661,0,0,0-5.824-4.165c-1.65-.974-3.91-1.453-4.989-3.133a1.7,1.7,0,0,1,1.1-2.5c2.145-.709,4.476.8,6.292,1.823a44.987,44.987,0,0,1,6.233,4.393,55,55,0,0,1,4.174,3.76,36.394,36.394,0,0,0-1.249-4.87,55.9,55.9,0,0,0-4.113-8.64,73.876,73.876,0,0,0-10.066-13.81c-4.217-4.52-9.056-9.395-14.152-12.869a61.546,61.546,0,0,0-9-5.106,31.768,31.768,0,0,0-9.744-2.662C361.749,291.426,362.458,290.588,363.05,290.426Z" transform="translate(-362.171 -290.117)" fill="#fc1152"/>
  </g>
</svg>
