<?xml version="1.0" encoding="utf-8"?>
<!-- Generator: Adobe Illustrator 27.5.0, SVG Export Plug-In . SVG Version: 6.00 Build 0)  -->
<svg version="1.1" id="Calque_1" xmlns="http://www.w3.org/2000/svg" xmlns:xlink="http://www.w3.org/1999/xlink" x="0px" y="0px"
	 viewBox="0 0 334.81 100.78" style="enable-background:new 0 0 334.81 100.78;" xml:space="preserve">
<style type="text/css">
	.st0{enable-background:new    ;}
	.st1{fill:#FFFFFF;}
	.st2{clip-path:url(#SVGID_00000005981762082077878010000015371019488166015898_);}
	.st3{fill:#FED831;}
</style>
<g class="st0">
	<path class="st1" d="M98.23,51.62c-2.87,0.25-5.05-0.16-6.53-1.24c-1.49-1.07-2.34-2.84-2.55-5.3c-0.21-2.46,0.65-4.75,2.59-6.87
		c1.94-2.12,4.26-3.33,6.97-3.62c-2.61-0.12-4.49-0.65-5.64-1.59c-1.15-0.94-1.81-2.38-1.98-4.3c-0.17-1.92,0.29-3.62,1.36-5.08
		c1.08-1.46,2.46-2.58,4.14-3.35c1.68-0.78,3.57-1.26,5.66-1.44c2.08-0.18,4,0.17,5.75,1.04c1.75,0.88,2.7,2.21,2.86,3.98
		c0.08,0.88-0.04,1.6-0.33,2.16c-0.3,0.56-0.62,0.92-0.97,1.07c-0.35,0.15-0.72,0.24-1.12,0.28l-0.16,0.01
		c-0.37,0.03-0.75-0.04-1.14-0.22c-0.7-0.31-1.08-0.92-1.16-1.83c-0.1-1.14,0.45-2.02,1.66-2.63c-1.35-1.03-3.12-1.45-5.31-1.26
		s-4,0.87-5.44,2.04c-1.44,1.17-2.08,2.59-1.94,4.26c0.15,1.67,0.75,2.9,1.83,3.67c1.07,0.78,2.78,1.32,5.14,1.62
		c0.87,0.14,1.34,0.62,1.41,1.44c0.04,0.5-0.12,0.96-0.48,1.37c-0.37,0.41-0.89,0.64-1.58,0.7c-2.31,0.2-4.28,1.08-5.89,2.62
		c-1.62,1.55-2.35,3.24-2.19,5.07c0.26,2.98,1.89,4.33,4.89,4.07c2.29-0.2,4.76-1.01,7.44-2.42c2.67-1.41,4.57-2.93,5.68-4.55
		c0.31-0.46,0.65-0.7,1.04-0.73c0.38-0.03,0.72,0.11,1,0.43c0.28,0.32,0.44,0.69,0.48,1.1c0.04,0.41-0.07,0.78-0.31,1.09
		c-1.3,1.96-3.49,3.79-6.57,5.49C103.76,50.42,100.89,51.39,98.23,51.62z"/>
	<path class="st1" d="M115.72,42.71c-0.37,0.62-0.97,1.7-1.8,3.25c-0.25,0.48-0.58,0.73-1,0.77c-0.41,0.04-0.79-0.11-1.12-0.42
		c-0.34-0.32-0.52-0.7-0.56-1.13c-0.04-0.44,0.21-0.88,0.73-1.31c0.52-0.43,1.33-1.42,2.43-2.96c-0.37-0.5-0.99-1.4-1.86-2.69
		c-0.88-1.29-1.6-2.33-2.18-3.14c-0.13-0.26-0.2-0.49-0.22-0.7c-0.02-0.21,0.13-0.46,0.44-0.74c0.31-0.28,0.62-0.44,0.92-0.46
		c0.3-0.03,0.5,0.04,0.6,0.19c0.58,0.78,1.28,1.77,2.11,2.97c0.83,1.2,1.38,1.99,1.65,2.36l3.4-5.19c0.62-0.91,1.43-1.41,2.44-1.5
		c0.61-0.05,1.14,0.07,1.58,0.36c0.44,0.3,0.69,0.78,0.75,1.46c0.06,0.68-0.14,1.04-0.59,1.08c-0.13,0.01-0.42-0.03-0.88-0.12
		c-0.45-0.09-0.86-0.13-1.23-0.09c-0.37,0.03-0.71,0.29-1.02,0.77l-3.13,5.01c1.49,2.01,2.7,2.98,3.62,2.9
		c0.45-0.04,0.86-0.22,1.24-0.53c0.37-0.31,0.66-0.63,0.86-0.94c0.2-0.31,0.45-0.73,0.75-1.27c0.3-0.53,0.53-0.93,0.7-1.19
		c0.17-0.26,0.38-0.39,0.65-0.42c0.26-0.02,0.48,0.06,0.65,0.27c0.16,0.2,0.26,0.45,0.29,0.76c0.03,0.3,0,0.54-0.08,0.69
		c-0.08,0.15-0.24,0.53-0.48,1.13c-0.24,0.6-0.57,1.23-1,1.91c-0.8,1.27-1.85,1.97-3.15,2.08C119.38,46,117.55,44.95,115.72,42.71z"
		/>
	<path class="st1" d="M122.74,53.21c0-0.88,0.18-2.9,0.52-6.05c0.34-3.15,0.54-4.88,0.61-5.19c0.07-0.31,0.23-1.09,0.5-2.33
		c0.27-1.24,0.63-2.46,1.09-3.65c0.37-0.94,0.79-1.71,1.24-2.3c0.46-0.59,1.08-1.11,1.87-1.57c0.79-0.46,1.75-0.73,2.88-0.83
		s2.03,0.22,2.71,0.95c0.68,0.73,1.07,1.71,1.18,2.93c0.03,0.29,0.04,0.71,0.03,1.24c1.3-0.41,2.95-1.73,4.95-3.96
		c0.15-0.09,0.31-0.15,0.47-0.16c0.16-0.01,0.32,0.08,0.49,0.28c0.16,0.2,0.26,0.47,0.29,0.82c0.03,0.35-0.09,0.64-0.37,0.88
		c-0.59,0.85-1.52,1.78-2.77,2.77c-1.25,0.99-2.42,1.67-3.52,2.03c-0.45,1.59-1.19,2.94-2.22,4.05c-1.03,1.11-2.23,1.72-3.61,1.84
		c-0.82,0.07-1.64-0.2-2.44-0.83c-0.05,0.33-0.21,1.82-0.47,4.5c-0.26,2.67-0.44,4.2-0.54,4.58c-0.1,0.38-0.39,0.75-0.87,1.1
		c-0.48,0.35-0.92,0.54-1.32,0.58l-0.31-0.37c-0.24-0.27-0.37-0.54-0.39-0.81L122.74,53.21z M128.97,42.27
		c0.69-0.06,1.32-0.38,1.9-0.97c0.58-0.59,1.03-1.32,1.35-2.21c-0.69-0.26-1.07-0.79-1.14-1.58c-0.04-0.45,0-0.82,0.12-1.12
		c0.12-0.29,0.42-0.66,0.89-1.1c0.04-0.11,0.09-0.18,0.14-0.21c-0.39-0.8-0.89-1.17-1.5-1.11c-0.61,0.05-1.13,0.27-1.57,0.66
		c-0.43,0.39-0.78,0.93-1.04,1.62s-0.45,1.31-0.58,1.86c-0.13,0.55-0.25,1.23-0.38,2.04c-0.13,0.81-0.21,1.32-0.25,1.51
		C127.59,42.12,128.28,42.33,128.97,42.27z"/>
	<path class="st1" d="M142.86,43.67c-1.33,0.12-2.4-0.33-3.21-1.35c-0.81-1.01-1.3-2.45-1.46-4.31c-0.05-0.56-0.07-0.98-0.07-1.28
		c0.01-3.88,0.67-7.98,1.98-12.3c0.65-2.06,1.53-3.81,2.63-5.23c1.11-1.42,2.34-2.19,3.69-2.31c0.8-0.07,1.46,0.13,1.98,0.61
		c0.52,0.48,0.82,1.1,0.89,1.87l0.03,0.32c-0.03,2.71-0.88,5.6-2.53,8.69c-1.66,3.09-3.56,5.64-5.71,7.64
		c-0.03,0.86-0.03,1.51,0.01,1.97c0.19,2.15,0.92,3.17,2.19,3.06c1.33-0.12,2.72-1.17,4.18-3.18c0.17-0.2,0.39-0.31,0.67-0.34
		c0.28-0.02,0.55,0.06,0.83,0.27c0.27,0.2,0.42,0.47,0.45,0.8c0.03,0.33-0.1,0.68-0.39,1.06C147.2,42.14,145.14,43.47,142.86,43.67z
		 M145.71,20.26c-1.12,0.1-2.11,1.62-2.99,4.56c-0.88,2.94-1.41,5.7-1.58,8.29c1.41-1.89,2.68-4.01,3.8-6.35
		c1.12-2.35,1.63-4.26,1.53-5.75C146.41,20.46,146.16,20.22,145.71,20.26z"/>
	<path class="st1" d="M151.71,42.98c-1.33,0.12-2.46-0.27-3.39-1.15c-0.93-0.88-1.46-2.04-1.59-3.47c-0.19-2.18,0.35-4.17,1.62-5.98
		c1.27-1.81,2.87-2.8,4.78-2.97c1.12-0.1,2.09,0.22,2.91,0.95c0.83,0.73,1.29,1.71,1.4,2.93c0.02,0.27,0.01,0.69-0.05,1.29
		c1.7-0.47,3.31-1.73,4.85-3.8c0.1-0.11,0.23-0.18,0.4-0.19c0.17-0.01,0.36,0.09,0.57,0.33c0.21,0.24,0.32,0.48,0.34,0.73
		c0.02,0.25-0.02,0.44-0.11,0.55c-1.59,2.36-3.66,4.01-6.23,4.96C156.66,40.76,154.82,42.7,151.71,42.98z M152.09,40.37
		c0.69-0.06,1.3-0.5,1.83-1.32c0.53-0.82,0.8-1.62,0.81-2.4c-1.02-0.34-1.56-0.84-1.62-1.5c-0.06-0.66,0.23-1.36,0.86-2.08
		c-0.06-0.34-0.17-0.59-0.33-0.73c-0.16-0.15-0.37-0.21-0.64-0.18c-1.01,0.09-1.82,0.76-2.43,2c-0.61,1.24-0.87,2.5-0.75,3.78
		C149.98,39.67,150.73,40.49,152.09,40.37z"/>
	<path class="st1" d="M160.36,38.17c-0.1-1.17-0.01-2.56,0.28-4.18c0.29-1.62,0.61-2.83,0.97-3.64c0.36-0.81,0.68-1.3,0.97-1.47
		c0.29-0.17,0.63-0.28,1.02-0.31s0.73,0.03,1.02,0.19s0.45,0.35,0.47,0.56c0.02,0.21-0.1,0.6-0.36,1.15
		c-0.26,0.56-0.56,1.63-0.9,3.21c-0.34,1.58-0.47,2.84-0.39,3.77c0.11,1.25,0.63,1.83,1.56,1.75c1.12-0.1,2.38-1.12,3.79-3.06
		c0.19-0.28,0.44-0.44,0.74-0.47c0.3-0.03,0.59,0.06,0.87,0.27c0.27,0.2,0.42,0.46,0.45,0.76s-0.09,0.66-0.35,1.05
		c-1.76,2.48-3.71,3.82-5.83,4c-1.2,0.1-2.18-0.18-2.96-0.85C160.91,40.25,160.47,39.33,160.36,38.17z M165.18,25.78
		c-1.43,0.12-2.21-0.44-2.32-1.69c-0.06-0.66,0.13-1.21,0.56-1.63c0.43-0.43,1.01-0.67,1.72-0.73c1.33-0.12,2.04,0.42,2.15,1.62
		c0.06,0.69-0.1,1.25-0.49,1.69C166.41,25.47,165.87,25.72,165.18,25.78z"/>
	<path class="st1" d="M168.7,34.79l-0.04-0.44c-0.32,0.27-0.61,0.42-0.86,0.44c-0.25,0.02-0.48-0.07-0.67-0.28
		c-0.19-0.21-0.3-0.48-0.33-0.81c-0.03-0.33,0.11-0.6,0.41-0.8c0.3-0.2,0.79-0.49,1.45-0.87c0.14-3.57,0.78-7.01,1.91-10.32
		c0.58-1.68,1.35-3.09,2.32-4.24c0.97-1.14,1.96-1.76,2.97-1.85c1.01-0.09,1.76,0.1,2.24,0.57c0.48,0.47,0.75,1.06,0.82,1.78
		l0.03,0.28c0.01,1.98-0.55,4-1.7,6.05c-1.14,2.05-2.54,3.89-4.2,5.5c2.14-0.94,3.51-1.43,4.12-1.48c0.21-0.02,0.43,0.08,0.65,0.28
		c0.22,0.21,0.34,0.5,0.38,0.87c0.03,0.37-0.17,0.62-0.62,0.74c-1.34,0.33-3.35,1.19-6.04,2.58c0.02,0.85,0.05,1.52,0.09,2
		c0.22,2.52,0.88,3.74,1.96,3.64c1.27-0.11,2.67-1.17,4.18-3.18c0.17-0.2,0.39-0.31,0.67-0.34c0.28-0.02,0.55,0.06,0.83,0.27
		c0.27,0.2,0.42,0.47,0.45,0.8s-0.1,0.69-0.39,1.06c-1.85,2.46-3.8,3.79-5.88,3.97c-1.54,0.13-2.67-0.35-3.4-1.45
		S168.88,36.86,168.7,34.79z M175.9,18.94c-0.74,0.06-1.44,0.69-2.08,1.87c-1.2,2.17-1.92,4.85-2.15,8.06
		c0.05-0.06,0.34-0.44,0.88-1.16s0.88-1.16,1.01-1.33c0.13-0.17,0.42-0.58,0.86-1.22s0.72-1.13,0.86-1.46
		c0.13-0.33,0.31-0.78,0.54-1.33c0.23-0.56,0.38-1.08,0.43-1.56c0.05-0.49,0.06-0.91,0.03-1.29
		C176.24,19.14,176.12,18.95,175.9,18.94z"/>
	<path class="st1" d="M178.1,35.29c-0.17-1.96,0.31-3.85,1.45-5.65c1.14-1.8,2.63-2.78,4.46-2.94c1.09-0.09,2.02,0.13,2.79,0.68
		c0.77,0.55,1.2,1.34,1.29,2.38c0.13,1.46-0.37,2.7-1.48,3.7c-1.12,1.01-2.86,1.87-5.23,2.58c0.47,1.11,1.48,1.6,3.02,1.46
		c2.12-0.19,4.05-1.26,5.78-3.24c0.1-0.11,0.26-0.18,0.48-0.2c0.23-0.02,0.45,0.05,0.66,0.22c0.21,0.17,0.34,0.39,0.36,0.65
		c0.02,0.27-0.05,0.54-0.21,0.82c-0.58,0.99-1.56,1.94-2.92,2.85c-1.37,0.91-2.83,1.43-4.38,1.57c-1.55,0.14-2.91-0.21-4.08-1.03
		C178.91,38.33,178.25,37.04,178.1,35.29z M184.3,29.29c-0.86,0.08-1.65,0.65-2.36,1.71c-0.71,1.06-1.01,2.17-0.91,3.31
		c3.22-1.43,4.78-2.77,4.67-4.02C185.62,29.55,185.16,29.22,184.3,29.29z"/>
	<path class="st1" d="M196.8,26.11c0.4-0.03,0.74,0.05,1.03,0.25c0.29,0.2,0.44,0.45,0.47,0.74c0.08,0.96-0.04,1.64-0.36,2.06
		c-0.33,0.42-2.4,2.67-6.21,6.75c0.03,0.32,0.21,0.57,0.57,0.75c0.35,0.18,0.85,0.25,1.48,0.19c1.73-0.15,3.89-1.16,6.48-3.02
		c0.02-0.03,0.1-0.05,0.21-0.06c0.12-0.01,0.25,0.09,0.39,0.31c0.14,0.22,0.23,0.51,0.26,0.88c0.03,0.37-0.09,0.68-0.36,0.91
		c-2.34,2.08-4.75,3.23-7.25,3.44c-1.28,0.11-2.33-0.06-3.16-0.53c-0.83-0.46-1.28-1.15-1.36-2.07s0.35-1.86,1.28-2.82l5.5-5.54
		c-2.64,0.44-4.57,0.72-5.79,0.83c-0.16,0.01-0.33-0.12-0.52-0.42c-0.19-0.29-0.29-0.61-0.32-0.96c-0.06-0.66,0.24-1.03,0.91-1.08
		L196.8,26.11z"/>
	<path class="st1" d="M208.06,31.35l-0.04-0.44c-0.32,0.27-0.61,0.42-0.87,0.44c-0.25,0.02-0.47-0.07-0.67-0.28
		c-0.19-0.21-0.3-0.48-0.33-0.81c-0.03-0.33,0.11-0.6,0.41-0.8c0.3-0.2,0.79-0.49,1.45-0.87c0.14-3.57,0.78-7.01,1.91-10.32
		c0.58-1.68,1.35-3.09,2.32-4.24c0.97-1.14,1.96-1.76,2.97-1.85c1.01-0.09,1.75,0.1,2.24,0.57c0.48,0.47,0.76,1.06,0.82,1.78
		l0.02,0.28c0.01,1.98-0.55,4-1.7,6.05c-1.15,2.05-2.54,3.89-4.2,5.5c2.14-0.94,3.52-1.43,4.13-1.48c0.21-0.02,0.43,0.08,0.65,0.28
		s0.34,0.5,0.38,0.87s-0.17,0.62-0.62,0.74c-1.34,0.33-3.35,1.19-6.04,2.57c0.02,0.86,0.05,1.52,0.1,2
		c0.22,2.52,0.87,3.74,1.96,3.64c1.28-0.11,2.67-1.17,4.18-3.18c0.17-0.2,0.39-0.31,0.67-0.34s0.55,0.06,0.83,0.27
		c0.27,0.2,0.42,0.47,0.45,0.8c0.03,0.33-0.1,0.68-0.39,1.06c-1.85,2.46-3.8,3.79-5.88,3.97c-1.54,0.13-2.67-0.35-3.4-1.45
		C208.69,35.01,208.24,33.42,208.06,31.35z M215.27,15.51c-0.74,0.06-1.44,0.69-2.09,1.87c-1.2,2.17-1.92,4.85-2.15,8.06
		c0.05-0.06,0.34-0.44,0.88-1.16s0.88-1.16,1.01-1.33c0.13-0.17,0.42-0.58,0.86-1.22c0.44-0.64,0.72-1.13,0.86-1.46
		c0.13-0.33,0.31-0.78,0.55-1.33c0.23-0.56,0.37-1.08,0.42-1.56c0.05-0.49,0.06-0.91,0.03-1.29
		C215.6,15.71,215.48,15.51,215.27,15.51z"/>
	<path class="st1" d="M222.15,36.82c-1.33,0.12-2.46-0.27-3.39-1.15c-0.94-0.88-1.46-2.04-1.59-3.47c-0.19-2.18,0.35-4.17,1.62-5.98
		s2.87-2.8,4.78-2.97c1.12-0.1,2.09,0.22,2.91,0.95c0.83,0.73,1.29,1.71,1.4,2.93c0.02,0.27,0.01,0.7-0.05,1.29
		c1.7-0.47,3.31-1.73,4.85-3.8c0.1-0.11,0.23-0.18,0.4-0.19c0.17-0.02,0.36,0.09,0.57,0.33c0.21,0.24,0.32,0.48,0.35,0.73
		s-0.02,0.44-0.11,0.55c-1.59,2.36-3.66,4.01-6.23,4.96C227.09,34.61,225.25,36.55,222.15,36.82z M222.52,34.22
		c0.69-0.06,1.3-0.5,1.83-1.32c0.53-0.82,0.8-1.62,0.81-2.4c-1.02-0.34-1.56-0.84-1.62-1.5c-0.06-0.66,0.23-1.36,0.86-2.08
		c-0.06-0.34-0.17-0.59-0.32-0.73c-0.16-0.15-0.37-0.21-0.64-0.18c-1.01,0.09-1.82,0.76-2.44,2c-0.61,1.24-0.87,2.5-0.75,3.78
		C220.41,33.52,221.17,34.34,222.52,34.22z"/>
	<path class="st1" d="M241.77,22.99c-0.69,2.87-1.05,5.57-1.1,8.09l0,0.48c0.05,0.61,0.27,0.9,0.64,0.87
		c0.85-0.13,1.88-0.99,3.1-2.6c0.32-0.3,0.6-0.45,0.82-0.47c0.23-0.02,0.51,0.11,0.86,0.39c0.35,0.28,0.53,0.55,0.55,0.81
		c0.05,0.61-0.69,1.51-2.23,2.7c-1.54,1.19-2.8,1.83-3.79,1.92c-1.57,0.14-2.43-0.58-2.6-2.14l0.01-1.25
		c-0.22,0.85-0.71,1.71-1.46,2.58c-0.75,0.87-1.7,1.35-2.84,1.45c-1.14,0.1-2.03-0.21-2.67-0.93c-0.64-0.72-1.01-1.69-1.12-2.91
		c-0.14-1.59-0.01-3.28,0.38-5.05c0.39-1.77,0.73-2.95,1-3.52c0.27-0.57,0.67-0.88,1.19-0.93c0.52-0.04,0.92,0.02,1.2,0.2
		c0.28,0.18,0.43,0.35,0.45,0.52c0.02,0.17-0.22,1.18-0.7,3.01c-0.48,1.84-0.72,3.43-0.71,4.8l0.02,0.28
		c0.12,1.3,0.62,1.91,1.53,1.83c0.72-0.06,1.42-0.55,2.1-1.45c0.68-0.9,1.17-2.1,1.47-3.6l0.73-4.08c0.19-0.9,0.4-1.48,0.63-1.74
		c0.23-0.26,0.55-0.41,0.96-0.45s0.77,0.05,1.09,0.27c0.31,0.21,0.48,0.47,0.51,0.76L241.77,22.99z"/>
	<path class="st1" d="M244.79,28.14l-0.04-0.44c-0.32,0.27-0.61,0.42-0.86,0.44c-0.25,0.02-0.48-0.07-0.67-0.28
		c-0.19-0.21-0.3-0.48-0.33-0.81c-0.03-0.33,0.11-0.6,0.41-0.8c0.3-0.2,0.79-0.49,1.45-0.87c0.14-3.57,0.78-7.01,1.91-10.32
		c0.58-1.68,1.35-3.09,2.32-4.24c0.97-1.14,1.96-1.76,2.97-1.85c1.01-0.09,1.75,0.1,2.24,0.57c0.48,0.47,0.76,1.06,0.82,1.78
		l0.02,0.28c0.01,1.98-0.55,4-1.7,6.05c-1.14,2.05-2.54,3.89-4.2,5.5c2.14-0.94,3.51-1.43,4.12-1.48c0.21-0.02,0.43,0.08,0.65,0.28
		c0.22,0.21,0.35,0.5,0.38,0.87c0.03,0.37-0.17,0.62-0.62,0.74c-1.34,0.33-3.35,1.19-6.04,2.58c0.02,0.85,0.05,1.52,0.09,2
		c0.22,2.52,0.88,3.74,1.96,3.64c1.28-0.11,2.67-1.17,4.18-3.18c0.17-0.2,0.39-0.31,0.67-0.34c0.28-0.02,0.55,0.06,0.83,0.27
		c0.27,0.2,0.42,0.47,0.45,0.8s-0.1,0.68-0.39,1.06c-1.85,2.46-3.8,3.79-5.88,3.97c-1.54,0.13-2.67-0.35-3.4-1.45
		C245.42,31.8,244.97,30.21,244.79,28.14z M252,12.3c-0.74,0.06-1.44,0.69-2.08,1.87c-1.2,2.17-1.92,4.85-2.15,8.06
		c0.05-0.06,0.34-0.44,0.88-1.16c0.54-0.72,0.88-1.16,1.01-1.33s0.42-0.58,0.86-1.22s0.72-1.13,0.86-1.46
		c0.13-0.33,0.31-0.78,0.55-1.33c0.23-0.56,0.37-1.08,0.43-1.56c0.05-0.49,0.06-0.91,0.03-1.29C252.34,12.5,252.21,12.31,252,12.3z"
		/>
</g>
<g class="st0">
	<path class="st1" d="M94.7,70.41c0.1,1.13,0.25,2.05,0.44,2.77c0.2,0.72,0.37,1.23,0.51,1.52c0.15,0.29,0.23,0.44,0.26,0.44
		l0.48-0.44c0.32-0.3,0.73-0.85,1.24-1.67s0.94-1.75,1.3-2.8l-0.06-0.64c-0.15-1.7,0.06-3.04,0.63-4.01
		c0.57-0.97,1.23-1.49,1.97-1.56c0.32-0.03,0.6,0.05,0.84,0.23c0.24,0.18,0.38,0.5,0.42,0.95c0.04,0.45-0.23,1.67-0.81,3.64
		c2.07-0.55,3.65-1.75,4.75-3.59c0.14-0.25,0.35-0.39,0.63-0.42c0.28-0.02,0.55,0.09,0.81,0.35c0.26,0.26,0.41,0.52,0.43,0.79
		c0.02,0.27,0,0.48-0.06,0.65c-0.49,1.09-1.49,2.12-2.98,3.11c-1.49,0.99-2.94,1.54-4.35,1.66l-0.12,0.01
		c-1.28,3.08-2.88,5.23-4.78,6.44c-0.28,0.18-0.55,0.29-0.82,0.31c-0.88,0.08-1.71-0.48-2.51-1.67s-1.28-2.73-1.45-4.61
		c-0.17-1.89-0.03-3.86,0.4-5.94c0.15-0.71,0.59-1.1,1.3-1.16c0.4-0.04,0.77,0.05,1.11,0.27c0.34,0.21,0.52,0.49,0.55,0.83
		C94.65,67.78,94.6,69.29,94.7,70.41z"/>
	<path class="st1" d="M108.67,76.84c-1.33,0.12-2.46-0.27-3.39-1.15c-0.93-0.88-1.46-2.04-1.59-3.47c-0.19-2.18,0.35-4.17,1.62-5.98
		s2.87-2.8,4.78-2.97c1.12-0.1,2.09,0.22,2.91,0.95s1.29,1.71,1.4,2.93c0.02,0.27,0.01,0.69-0.05,1.29c1.7-0.47,3.31-1.73,4.85-3.8
		c0.1-0.11,0.23-0.18,0.4-0.19c0.17-0.02,0.36,0.09,0.57,0.33c0.21,0.24,0.32,0.48,0.35,0.73c0.02,0.25-0.02,0.44-0.11,0.55
		c-1.59,2.36-3.66,4.01-6.23,4.96C113.61,74.63,111.77,76.57,108.67,76.84z M109.04,74.24c0.69-0.06,1.3-0.5,1.83-1.32
		s0.8-1.62,0.81-2.4c-1.02-0.34-1.56-0.84-1.62-1.5c-0.06-0.66,0.23-1.36,0.86-2.08c-0.06-0.34-0.17-0.59-0.32-0.73
		c-0.16-0.15-0.37-0.21-0.64-0.18c-1.01,0.09-1.82,0.76-2.44,2c-0.61,1.24-0.86,2.5-0.75,3.78
		C106.93,73.54,107.69,74.36,109.04,74.24z"/>
	<path class="st1" d="M117.49,69.37l-0.04-0.44c-0.32,0.27-0.61,0.42-0.86,0.44c-0.25,0.02-0.48-0.07-0.67-0.28
		c-0.19-0.21-0.3-0.48-0.33-0.81c-0.03-0.33,0.11-0.6,0.41-0.8c0.3-0.2,0.79-0.49,1.45-0.87c0.14-3.57,0.78-7.01,1.91-10.32
		c0.58-1.68,1.35-3.09,2.32-4.24c0.97-1.14,1.96-1.76,2.97-1.85c1.01-0.09,1.75,0.1,2.24,0.57c0.48,0.47,0.75,1.06,0.82,1.78
		l0.02,0.28c0.01,1.98-0.55,4-1.7,6.05c-1.14,2.05-2.54,3.89-4.2,5.5c2.14-0.94,3.51-1.43,4.12-1.48c0.21-0.02,0.43,0.08,0.65,0.28
		s0.34,0.5,0.38,0.87s-0.17,0.62-0.62,0.74c-1.34,0.33-3.35,1.19-6.04,2.58c0.02,0.86,0.05,1.52,0.09,2
		c0.22,2.52,0.88,3.74,1.96,3.64c1.27-0.11,2.67-1.17,4.18-3.18c0.17-0.2,0.39-0.31,0.67-0.34c0.28-0.02,0.55,0.06,0.83,0.27
		c0.27,0.2,0.42,0.47,0.45,0.8c0.03,0.33-0.1,0.68-0.39,1.06c-1.85,2.46-3.8,3.79-5.88,3.97c-1.54,0.13-2.67-0.35-3.4-1.45
		C118.12,73.03,117.67,71.44,117.49,69.37z M124.69,53.52c-0.74,0.06-1.44,0.69-2.08,1.87c-1.2,2.17-1.92,4.85-2.15,8.06
		c0.05-0.06,0.34-0.44,0.88-1.16c0.54-0.72,0.88-1.16,1.01-1.33c0.13-0.17,0.42-0.58,0.86-1.22s0.72-1.13,0.86-1.46
		s0.31-0.78,0.55-1.33s0.37-1.08,0.43-1.56c0.05-0.49,0.06-0.92,0.03-1.29C125.03,53.72,124.91,53.53,124.69,53.52z"/>
	<path class="st1" d="M130.12,69.71c0.35-1.55,1.09-3.36,2.24-5.41c1.15-2.05,2.13-3.12,2.95-3.19c1.17-0.1,1.79,0.3,1.87,1.2
		c0.05,0.58-0.03,1.27-0.24,2.05c-0.21,0.78-0.31,1.25-0.3,1.41c0.03,0.4,0.34,0.57,0.91,0.52c0.57-0.05,1.47-0.52,2.71-1.4
		c0.05-0.03,0.16-0.05,0.32-0.07s0.38,0.11,0.66,0.38c0.28,0.27,0.43,0.52,0.45,0.74c0.02,0.23-0.02,0.4-0.12,0.51
		c-1.47,1.57-2.96,2.43-4.47,2.56c-1.81,0.16-2.78-0.53-2.91-2.07c0-0.05,0.13-0.93,0.41-2.65c-0.03,0-0.21,0.34-0.55,1.01
		c-1.07,2.18-2.06,4.96-2.97,8.33c-0.29,0.72-0.83,1.12-1.62,1.19c-1.09,0.1-1.71-0.73-1.86-2.49l-0.03-0.32
		c-0.25-2.87-0.08-5.71,0.5-8.51c0.29-1.23,0.88-1.88,1.76-1.96c0.35-0.03,0.63,0.05,0.87,0.25c0.23,0.19,0.36,0.45,0.39,0.77
		L130.12,69.71z"/>
	<path class="st1" d="M139.51,68.77c-0.17-1.96,0.31-3.85,1.45-5.65c1.14-1.8,2.63-2.78,4.46-2.94c1.09-0.09,2.02,0.13,2.79,0.68
		s1.2,1.34,1.29,2.38c0.13,1.46-0.37,2.7-1.48,3.7c-1.12,1.01-2.86,1.87-5.23,2.58c0.47,1.11,1.48,1.6,3.02,1.46
		c2.12-0.19,4.05-1.26,5.78-3.24c0.1-0.11,0.26-0.18,0.48-0.2c0.23-0.02,0.45,0.05,0.66,0.22c0.21,0.17,0.33,0.39,0.36,0.65
		c0.02,0.27-0.05,0.54-0.21,0.82c-0.58,0.99-1.56,1.94-2.92,2.84s-2.83,1.43-4.38,1.57s-2.92-0.21-4.08-1.03
		C140.33,71.81,139.67,70.52,139.51,68.77z M145.71,62.77c-0.86,0.08-1.65,0.65-2.36,1.71c-0.71,1.06-1.01,2.17-0.91,3.31
		c3.22-1.43,4.78-2.77,4.67-4.02C147.04,63.03,146.58,62.69,145.71,62.77z"/>
	<path class="st1" d="M158.65,80.18c0-0.88,0.17-2.9,0.52-6.05c0.34-3.15,0.54-4.88,0.61-5.19c0.07-0.31,0.23-1.09,0.5-2.33
		c0.27-1.24,0.63-2.46,1.09-3.65c0.37-0.94,0.79-1.71,1.24-2.3c0.46-0.59,1.08-1.11,1.87-1.57c0.79-0.46,1.75-0.73,2.88-0.83
		c1.13-0.1,2.03,0.22,2.71,0.95c0.68,0.73,1.07,1.71,1.18,2.93c0.03,0.29,0.04,0.71,0.03,1.24c1.3-0.41,2.95-1.73,4.95-3.96
		c0.15-0.09,0.31-0.15,0.47-0.16s0.32,0.08,0.49,0.28c0.16,0.2,0.26,0.47,0.29,0.82c0.03,0.35-0.09,0.64-0.37,0.88
		c-0.59,0.86-1.52,1.78-2.77,2.77c-1.25,0.99-2.42,1.67-3.52,2.03c-0.45,1.59-1.19,2.94-2.22,4.05c-1.03,1.11-2.23,1.72-3.61,1.84
		c-0.82,0.07-1.64-0.2-2.44-0.83c-0.05,0.33-0.21,1.82-0.47,4.5c-0.26,2.67-0.44,4.2-0.54,4.58c-0.1,0.38-0.39,0.75-0.87,1.1
		c-0.48,0.35-0.92,0.54-1.31,0.58l-0.31-0.37c-0.24-0.27-0.37-0.54-0.39-0.81L158.65,80.18z M164.88,69.24
		c0.69-0.06,1.33-0.38,1.9-0.97c0.58-0.59,1.03-1.32,1.35-2.21c-0.69-0.26-1.07-0.79-1.14-1.58c-0.04-0.45,0-0.82,0.12-1.12
		c0.12-0.29,0.42-0.66,0.89-1.1c0.04-0.11,0.09-0.18,0.14-0.21c-0.39-0.79-0.89-1.17-1.5-1.11c-0.61,0.05-1.13,0.27-1.57,0.66
		c-0.44,0.39-0.78,0.93-1.04,1.62c-0.26,0.69-0.45,1.31-0.58,1.86c-0.13,0.55-0.25,1.23-0.38,2.04c-0.13,0.81-0.21,1.32-0.25,1.51
		C163.51,69.1,164.19,69.3,164.88,69.24z"/>
	<path class="st1" d="M177.71,70.81c-1.33,0.12-2.46-0.27-3.39-1.15c-0.93-0.88-1.46-2.04-1.59-3.47c-0.19-2.18,0.35-4.17,1.62-5.98
		s2.87-2.8,4.78-2.97c1.12-0.1,2.09,0.22,2.91,0.95c0.83,0.73,1.29,1.71,1.4,2.93c0.02,0.27,0.01,0.7-0.05,1.29
		c1.7-0.47,3.31-1.73,4.85-3.8c0.1-0.11,0.23-0.18,0.41-0.19c0.17-0.02,0.36,0.09,0.57,0.33c0.21,0.24,0.32,0.48,0.35,0.73
		c0.02,0.25-0.02,0.44-0.11,0.55c-1.59,2.36-3.66,4.01-6.23,4.96C182.65,68.6,180.81,70.54,177.71,70.81z M178.08,68.21
		c0.69-0.06,1.3-0.5,1.83-1.32c0.53-0.82,0.8-1.62,0.82-2.4c-1.02-0.34-1.56-0.84-1.62-1.51c-0.06-0.66,0.23-1.36,0.86-2.08
		c-0.06-0.34-0.17-0.59-0.32-0.73c-0.16-0.15-0.37-0.21-0.64-0.18c-1.01,0.09-1.82,0.76-2.44,2c-0.61,1.24-0.86,2.5-0.75,3.78
		C175.97,67.51,176.73,68.33,178.08,68.21z"/>
	<path class="st1" d="M186.53,63.34l-0.04-0.44c-0.32,0.27-0.61,0.42-0.86,0.44c-0.25,0.02-0.48-0.07-0.67-0.28
		c-0.19-0.21-0.3-0.48-0.33-0.81c-0.03-0.33,0.11-0.6,0.41-0.8c0.3-0.2,0.79-0.49,1.45-0.87c0.14-3.57,0.78-7.01,1.91-10.32
		c0.58-1.68,1.35-3.09,2.32-4.24c0.97-1.14,1.96-1.76,2.97-1.85c1.01-0.09,1.75,0.1,2.24,0.57c0.48,0.47,0.75,1.06,0.82,1.78
		l0.02,0.28c0.01,1.98-0.55,4-1.7,6.05c-1.14,2.05-2.54,3.89-4.2,5.5c2.14-0.94,3.51-1.43,4.12-1.48c0.21-0.02,0.43,0.08,0.65,0.28
		s0.34,0.5,0.38,0.87s-0.17,0.62-0.62,0.74c-1.34,0.33-3.35,1.19-6.04,2.58c0.02,0.86,0.05,1.52,0.09,2
		c0.22,2.52,0.88,3.74,1.96,3.64c1.28-0.11,2.67-1.17,4.18-3.18c0.17-0.2,0.39-0.31,0.67-0.34c0.28-0.02,0.55,0.06,0.83,0.27
		c0.27,0.2,0.42,0.47,0.45,0.8c0.03,0.33-0.1,0.68-0.39,1.06c-1.85,2.46-3.8,3.79-5.88,3.97c-1.54,0.13-2.67-0.35-3.4-1.45
		C187.16,67,186.71,65.41,186.53,63.34z M193.73,47.49c-0.74,0.06-1.44,0.69-2.08,1.87c-1.2,2.17-1.92,4.85-2.15,8.06
		c0.05-0.06,0.34-0.44,0.88-1.16c0.54-0.72,0.88-1.16,1.01-1.33c0.13-0.17,0.42-0.58,0.86-1.22c0.44-0.64,0.72-1.13,0.86-1.46
		c0.13-0.33,0.31-0.78,0.55-1.33c0.23-0.56,0.37-1.08,0.43-1.56c0.05-0.49,0.06-0.91,0.03-1.29
		C194.07,47.69,193.95,47.5,193.73,47.49z"/>
	<path class="st1" d="M195.92,63.84c-0.17-1.96,0.31-3.85,1.45-5.65c1.14-1.8,2.63-2.78,4.46-2.94c1.09-0.09,2.02,0.13,2.79,0.68
		s1.2,1.34,1.29,2.38c0.13,1.46-0.37,2.7-1.48,3.7c-1.12,1.01-2.86,1.87-5.23,2.58c0.47,1.11,1.48,1.6,3.02,1.46
		c2.12-0.19,4.05-1.26,5.78-3.24c0.1-0.11,0.26-0.18,0.48-0.2c0.23-0.02,0.45,0.05,0.66,0.22c0.22,0.17,0.33,0.39,0.36,0.65
		c0.02,0.27-0.05,0.54-0.21,0.82c-0.58,0.99-1.56,1.94-2.92,2.85c-1.37,0.91-2.83,1.43-4.38,1.57s-2.92-0.21-4.08-1.03
		C196.74,66.88,196.08,65.59,195.92,63.84z M202.12,57.84c-0.86,0.08-1.65,0.65-2.36,1.71c-0.71,1.06-1.01,2.17-0.92,3.31
		c3.22-1.43,4.78-2.77,4.67-4.02C203.45,58.1,202.99,57.77,202.12,57.84z"/>
	<path class="st1" d="M219.05,64.31c0.99-0.3,2.14-1.19,3.46-2.67c0.1-0.12,0.25-0.18,0.44-0.2c0.2-0.02,0.43,0.14,0.68,0.48
		c0.26,0.34,0.4,0.61,0.41,0.81c0.02,0.2,0,0.36-0.04,0.46c-0.75,1.16-1.75,2.09-2.97,2.79c-1.22,0.7-2.26,1.08-3.11,1.16
		c-1.54,0.13-2.38-0.63-2.53-2.31c-0.08-0.88,0.08-2.16,0.47-3.85c0.39-1.69,0.58-2.6,0.57-2.72s-0.04-0.18-0.1-0.17l-0.04,0
		c-0.44,0.23-1.29,1.37-2.57,3.42c-1.28,2.05-2.04,3.49-2.29,4.31c-0.25,0.82-0.48,1.36-0.68,1.61c-0.21,0.25-0.56,0.39-1.07,0.43
		c-0.99,0.06-1.56-0.91-1.74-2.9c-0.19-2.82,0.14-5.78,0.99-8.88c0.26-0.99,0.8-1.51,1.63-1.59c0.32-0.03,0.59,0.05,0.83,0.25
		c0.23,0.19,0.36,0.4,0.38,0.63c0.02,0.23,0.02,0.38,0,0.46c-0.46,1.81-0.78,3.82-0.96,6.03c1.17-2.51,2.37-4.46,3.59-5.83
		c1.22-1.38,2.34-2.11,3.38-2.2c0.53-0.05,1.01,0.08,1.44,0.38c0.43,0.3,0.66,0.63,0.69,1c0.05,0.58-0.17,1.94-0.67,4.05
		c-0.5,2.12-0.76,3.36-0.78,3.74c-0.02,0.38-0.02,0.7,0.01,0.98c0.02,0.28,0.12,0.41,0.29,0.38
		C218.92,64.33,219.02,64.31,219.05,64.31z"/>
	<path class="st1" d="M222.94,60.16l-0.04-0.44c-0.32,0.27-0.61,0.42-0.87,0.44c-0.25,0.02-0.47-0.07-0.67-0.28
		c-0.19-0.21-0.3-0.48-0.33-0.81c-0.03-0.33,0.11-0.6,0.41-0.8c0.3-0.2,0.79-0.49,1.45-0.87c0.14-3.57,0.78-7.01,1.91-10.32
		c0.58-1.68,1.35-3.09,2.32-4.24c0.97-1.14,1.96-1.76,2.97-1.85c1.01-0.09,1.75,0.1,2.24,0.57c0.48,0.47,0.75,1.06,0.82,1.78
		l0.02,0.28c0.01,1.98-0.55,4-1.7,6.05c-1.15,2.05-2.54,3.89-4.2,5.5c2.14-0.94,3.51-1.43,4.13-1.48c0.21-0.02,0.43,0.08,0.65,0.28
		c0.22,0.21,0.34,0.5,0.38,0.87c0.03,0.37-0.17,0.62-0.62,0.74c-1.34,0.33-3.35,1.19-6.04,2.57c0.02,0.86,0.05,1.52,0.09,2
		c0.22,2.52,0.88,3.74,1.96,3.64c1.27-0.11,2.67-1.17,4.18-3.18c0.17-0.2,0.39-0.31,0.67-0.34s0.55,0.06,0.83,0.27
		c0.27,0.2,0.42,0.47,0.45,0.8c0.03,0.33-0.1,0.68-0.39,1.06c-1.85,2.46-3.8,3.79-5.88,3.97c-1.54,0.13-2.67-0.35-3.4-1.45
		C223.57,63.82,223.12,62.23,222.94,60.16z M230.15,44.31c-0.74,0.06-1.44,0.69-2.08,1.87c-1.2,2.17-1.92,4.85-2.15,8.06
		c0.05-0.06,0.34-0.44,0.88-1.16c0.54-0.72,0.88-1.16,1.01-1.33c0.13-0.17,0.42-0.58,0.86-1.22s0.72-1.13,0.86-1.46
		c0.13-0.33,0.31-0.78,0.55-1.33c0.23-0.56,0.37-1.08,0.42-1.56c0.05-0.49,0.06-0.91,0.03-1.29
		C230.48,44.51,230.36,44.32,230.15,44.31z"/>
	<path class="st1" d="M233.13,61.92c-0.1-1.17-0.01-2.56,0.28-4.18c0.29-1.62,0.61-2.83,0.97-3.64c0.36-0.81,0.68-1.3,0.98-1.47
		c0.29-0.17,0.63-0.28,1.02-0.31c0.38-0.03,0.73,0.03,1.02,0.19s0.45,0.35,0.47,0.56c0.02,0.21-0.1,0.6-0.36,1.15
		c-0.26,0.56-0.56,1.63-0.9,3.21c-0.34,1.58-0.48,2.84-0.39,3.77c0.11,1.25,0.63,1.83,1.56,1.75c1.12-0.1,2.38-1.12,3.79-3.06
		c0.19-0.28,0.44-0.44,0.74-0.47c0.3-0.03,0.59,0.06,0.87,0.26c0.27,0.2,0.42,0.46,0.45,0.76c0.03,0.31-0.09,0.66-0.35,1.05
		c-1.76,2.48-3.71,3.82-5.83,4c-1.2,0.1-2.18-0.18-2.96-0.84S233.23,63.09,233.13,61.92z M237.95,49.53
		c-1.43,0.13-2.21-0.44-2.31-1.69c-0.06-0.66,0.13-1.21,0.56-1.63c0.43-0.43,1.01-0.67,1.72-0.73c1.33-0.12,2.04,0.42,2.15,1.62
		c0.06,0.69-0.11,1.25-0.5,1.69C239.18,49.23,238.64,49.47,237.95,49.53z"/>
	<path class="st1" d="M240.5,59.95c-0.17-1.96,0.31-3.85,1.45-5.65c1.14-1.8,2.63-2.78,4.46-2.94c1.09-0.1,2.02,0.13,2.79,0.68
		c0.77,0.55,1.2,1.34,1.29,2.38c0.13,1.46-0.37,2.7-1.48,3.7c-1.12,1.01-2.86,1.87-5.23,2.58c0.47,1.11,1.48,1.6,3.02,1.46
		c2.12-0.19,4.05-1.26,5.78-3.24c0.1-0.12,0.26-0.18,0.48-0.2c0.23-0.02,0.45,0.05,0.66,0.22c0.22,0.17,0.33,0.39,0.36,0.65
		c0.02,0.27-0.05,0.54-0.21,0.82c-0.58,0.99-1.56,1.94-2.92,2.85c-1.37,0.91-2.83,1.43-4.38,1.57s-2.92-0.21-4.08-1.03
		C241.32,62.99,240.66,61.7,240.5,59.95z M246.7,53.95c-0.86,0.08-1.65,0.65-2.36,1.71c-0.71,1.06-1.01,2.17-0.92,3.31
		c3.22-1.43,4.78-2.77,4.67-4.02C248.03,54.21,247.57,53.87,246.7,53.95z"/>
	<path class="st1" d="M257.73,63.74c-1.33,0.12-2.4-0.33-3.21-1.35c-0.81-1.01-1.3-2.45-1.46-4.31c-0.05-0.56-0.07-0.98-0.07-1.28
		c0.01-3.88,0.67-7.98,1.98-12.3c0.65-2.06,1.53-3.81,2.63-5.23c1.11-1.42,2.34-2.19,3.69-2.31c0.8-0.07,1.46,0.13,1.98,0.61
		c0.52,0.48,0.82,1.1,0.89,1.87l0.03,0.32c-0.03,2.71-0.88,5.6-2.53,8.69c-1.66,3.09-3.56,5.64-5.71,7.64
		c-0.03,0.86-0.03,1.51,0.01,1.97c0.19,2.15,0.92,3.17,2.19,3.06c1.33-0.12,2.72-1.17,4.18-3.17c0.17-0.2,0.39-0.32,0.67-0.34
		c0.28-0.02,0.55,0.06,0.83,0.27c0.27,0.2,0.42,0.47,0.45,0.8c0.03,0.33-0.1,0.69-0.39,1.06C262.07,62.21,260.02,63.54,257.73,63.74
		z M260.59,40.33c-1.12,0.1-2.11,1.62-2.99,4.56s-1.41,5.7-1.58,8.29c1.41-1.89,2.68-4.01,3.8-6.35c1.12-2.35,1.63-4.26,1.53-5.75
		C261.29,40.54,261.04,40.29,260.59,40.33z"/>
	<path class="st1" d="M276.85,61.95c-1.49,0.13-2.29-0.54-2.42-2c-0.07-0.8,0.09-1.46,0.49-1.97c0.4-0.52,0.98-0.81,1.75-0.88
		c1.46-0.13,2.26,0.55,2.39,2.04c0.07,0.77-0.09,1.41-0.47,1.93C278.19,61.59,277.62,61.89,276.85,61.95z M283.01,36.93
		c0.04,0.5-0.19,1.65-0.7,3.43l-4.02,13.76c-0.16,0.66-0.45,1-0.87,1.04c-0.19,0.02-0.35-0.04-0.5-0.16
		c-0.14-0.12-0.22-0.26-0.24-0.42l0.03-0.16l2.35-16.78c0.21-1.28,0.9-1.97,2.07-2.07C282.29,35.46,282.92,35.92,283.01,36.93z"/>
</g>
<g id="Composant_9_2" transform="translate(0 67.425) rotate(-34)">
	<path id="Tracé_171" class="st1" d="M50.53,29.16c-2.23,0.61-4.79-0.1-6.91-0.8c-2.56-0.88-5.03-2.03-7.35-3.43
		c-4.51-2.66-8.68-5.85-12.44-9.5c-3.35-3.36-6.27-7.11-8.69-11.19c-1.34-2.2-2.51-4.5-3.49-6.88C11.53-2.91,11.41-3.2,11.3-3.5
		c-0.09,1.02-0.18,2.04-0.31,3.06C10.86,1.1,10.51,2.6,9.95,4.04C9.66,4.78,9.3,5.5,8.86,6.17c-0.85,1.21-1.77,1.14-2,1.03
		C5.45,6.56,6.47,4.59,6.81,3.6c0.46-1.59,0.73-3.23,0.81-4.89c0.37-4.3,0.08-9.77,2.41-13.57c0.58-0.85,1.75-1.07,2.6-0.48
		c0.19,0.13,0.35,0.29,0.48,0.48c1.9,2.68,4.14,5.1,6.67,7.2c1.37,1.17,2.84,2.23,4.39,3.14c1.24,0.73,2.95,1.1,3.76,2.36
		c0.35,0.61,0.14,1.39-0.47,1.75c-0.11,0.06-0.23,0.11-0.35,0.14c-1.62,0.54-3.38-0.6-4.75-1.37c-1.66-0.97-3.23-2.08-4.7-3.31
		c-1.1-0.89-2.15-1.83-3.15-2.82c0.23,1.24,0.54,2.47,0.94,3.67c0.85,2.26,1.88,4.44,3.1,6.52c2.12,3.75,4.67,7.25,7.59,10.42
		c3.2,3.61,6.78,6.86,10.67,9.7c2.15,1.47,4.42,2.76,6.79,3.85c2.33,1.06,4.81,1.73,7.35,2.01C51.51,28.41,50.98,29.04,50.53,29.16z
		"/>
</g>
<g id="star" transform="translate(312.351 32.058)">
	<g>
		<g>
			<defs>
				<rect id="SVGID_1_" x="-3.68" y="-16.42" width="26.13" height="41.45"/>
			</defs>
			<clipPath id="SVGID_00000063592029382134155070000010252190576385527214_">
				<use xlink:href="#SVGID_1_"  style="overflow:visible;"/>
			</clipPath>
			<g id="Groupe_757" style="clip-path:url(#SVGID_00000063592029382134155070000010252190576385527214_);">
				<path id="Tracé_805" class="st3" d="M6.37,24.07c0.07-0.04,0.12-0.1,0.16-0.17c2.81-4.21,4.67-8.98,5.44-13.99
					c0.11-0.7,1-0.92,1.71-0.97l4.37-0.33c1.63-0.12,3.5-0.37,4.4-1.74l-6.17-6.65C16.12,0.08,16-0.11,15.94-0.32
					C15.93-0.55,15.99-0.8,16.11-1l2.85-6.12l-1.43-0.17c-0.6-0.92-1.2-1.85-1.8-2.78c-1.27,1.27-2.53,2.55-3.79,3.83
					c-0.15,0.2-0.37,0.32-0.61,0.34c-0.25-0.01-0.43-0.25-0.58-0.46l-2.67-3.86c-0.11-0.17-0.32,0.09-0.43,0.26
					s-0.47-0.07-0.26-0.09c0.45-0.49-0.05-1.26-0.53-1.73c-0.14-0.13-0.31-0.27-0.5-0.23c-0.07,0.02-0.12,0.09-0.13,0.16
					c-1.14-1.76-2.58-3.31-4.26-4.58c-1.04,0.86-0.84,2.48-0.57,3.8C2.23-8.66,2.87-4.67,3.34-0.65c0.13,1.1,0.14,2.44-0.78,3.06
					C0.74,3.65-0.98,5.02-2.6,6.51C-3.14,6.92-3.52,7.5-3.67,8.17c0.02,1,0.76,1.83,1.75,1.98c0.96,0.11,1.94,0.03,2.87-0.25
					c1.09-0.22,2.19-0.35,3.29-0.4c0.4,4.06,0.4,8.16-0.01,12.22c-0.24,1.11-0.12,2.26,0.33,3.3c0.48-0.05,0.97-0.09,1.45-0.14
					c-0.56-0.62-0.51-1.58,0.11-2.14c0.01-0.01,0.01-0.01,0.02-0.02c0.09,0.26-0.09,0.53-0.16,0.8S6.13,24.19,6.37,24.07 M19.54,4.7
					c0.11,0.01,0.11,0.21,0,0.22C19.44,4.91,19.43,4.7,19.54,4.7 M17.14-5.56C17.15-5.43,17.1-5.3,17-5.21
					c-0.12-0.09-0.17-0.24-0.12-0.38h-0.01C16.89-5.72,17.11-5.69,17.14-5.56 M15.77-2.91c0.14,0.32,0.14,0.69-0.02,1v0.04
					c-0.01,0-0.02,0-0.04,0C15.5-1.9,15.35-2.1,15.39-2.32c0-0.01,0-0.02,0-0.02C15.46-2.57,15.59-2.77,15.77-2.91 M11.55,9.38
					c-0.11,0.14-0.31,0.17-0.45,0.06c-0.02-0.02-0.04-0.04-0.06-0.06c0.1-0.14,0.3-0.17,0.44-0.07C11.51,9.33,11.53,9.35,11.55,9.38
					 M8.78,18.16c-0.09-0.45-0.06-0.91,0.09-1.34C9.04,17.27,9.17,17.87,8.78,18.16 M10.55,11.14c0.04-0.12,0.26-0.05,0.23,0.06
					l-0.24,0.02L10.55,11.14z M10.52,12.42l-0.04-0.01c-0.01,0.08-0.08,0.14-0.16,0.13l0,0c-0.14,0.01-0.26-0.09-0.29-0.23
					c-0.01-0.23,0.2-0.4,0.4-0.52C10.55,11.98,10.58,12.21,10.52,12.42 M10.15-0.38l0.08-0.02c-0.01,0.22-0.14,0.41-0.34,0.49
					C9.65-0.05,9.91-0.51,10.15-0.38 M10.01,13.23l-0.35,0.12l-0.08-0.01C9.49,13.1,9.98,12.98,10.01,13.23 M9.71,14.4
					c0.11,0.12,0.1,0.3-0.02,0.41c-0.01,0.01-0.02,0.02-0.04,0.03l0,0c-0.13-0.13-0.25-0.25-0.38-0.38c0.09-0.14,0.26-0.18,0.4-0.09
					C9.68,14.37,9.7,14.38,9.71,14.4 M8.98,2.79c-0.19,0.19-0.4,0.36-0.63,0.5C8.25,3.36,8.12,3.41,8,3.42
					c-0.07,0-0.14-0.03-0.19-0.08C7.66,3.17,7.83,2.92,7.99,2.77c0.48-0.46,0.96-0.93,1.44-1.39C9.49,1.89,9.33,2.41,8.98,2.79
					 M8.38-1.39c0.1,0.01,0.11,0.21,0,0.22C8.28-1.18,8.28-1.38,8.38-1.39 M5.89-8.08L8.6-4.2c0.1,0.12,0.16,0.26,0.19,0.41
					C8.78-3.62,8.71-3.46,8.6-3.33C8.18-2.72,7.67-2.16,7.1-1.68C6.8-1.81,6.74-2.19,6.72-2.51C6.58-3.96,6.29-5.4,5.85-6.79
					C5.72-7.22,5.58-7.74,5.89-8.08 M4.4-8.96c0.02-0.24,0.12-0.48,0.02-0.7l0.01-0.01c0.03-0.21-0.09-0.42-0.29-0.51
					c0.16-0.25,0.55-0.01,0.65,0.27s0.14,0.64,0.42,0.74C4.95-9.13,5.04-8.65,4.8-8.53C4.78-8.52,4.75-8.51,4.71-8.51
					C4.54-8.51,4.39-8.76,4.4-8.96 M5.83,21.92c-0.11-0.01-0.11-0.21,0-0.22C5.94,21.72,5.94,21.92,5.83,21.92 M5.81-0.68
					C5.6-1.12,5.64-1.63,5.92-2.03c-0.29-0.36-0.46-0.8-0.5-1.26C5.29-4.02,5.15-4.74,5.03-5.46C4.93-6,4.83-6.54,4.74-7.08
					C4.7-7.28,4.76-7.57,4.95-7.54c0.12,0.02,0.16,0.17,0.18,0.29l0.73,4.21c0.04,0.25,0.3,0.4,0.47,0.6s0.14,0.61-0.12,0.6
					C6.43-1.69,6.49-1.4,6.36-1.17C6.22-0.96,6.03-0.79,5.81-0.68"/>
			</g>
		</g>
	</g>
</g>
</svg>
