<?xml version="1.0" encoding="utf-8"?>
<!-- Generator: Adobe Illustrator 27.5.0, SVG Export Plug-In . SVG Version: 6.00 Build 0)  -->
<svg version="1.1" id="Calque_1" xmlns="http://www.w3.org/2000/svg" xmlns:xlink="http://www.w3.org/1999/xlink" x="0px" y="0px"
	 viewBox="0 0 249.42 101.16" style="enable-background:new 0 0 249.42 101.16;" xml:space="preserve">
<style type="text/css">
	.st0{enable-background:new    ;}
	.st1{fill:#FFFFFF;}
</style>
<g class="st0">
	<path class="st1" d="M58.36,49.5c-0.02-0.26-0.01-0.47,0.03-0.6c0.09-0.46,0.72-0.87,1.88-1.21c1.16-0.34,2.24-0.57,3.25-0.68
		c0.21-3.47,0.68-7.21,1.41-11.2c0.73-4,1.57-7.36,2.51-10.09c-0.19,0.02-0.62,0.07-1.31,0.15c-0.69,0.09-1.23,0.15-1.63,0.18
		l-0.08,0.01c-0.9,0.08-1.52,0.07-1.85-0.04c-0.33-0.1-0.52-0.42-0.57-0.95c-0.05-0.53,0-1,0.14-1.4c0.14-0.4,0.36-0.63,0.66-0.68
		c0.3-0.05,2.29-0.29,5.98-0.72c3.68-0.43,5.72-0.66,6.12-0.7c0.58-0.05,0.91,0.3,0.97,1.04c0.03,0.37-0.02,0.82-0.16,1.34
		c-0.15,0.47-1.3,0.85-3.47,1.15c-1.11,0.18-1.7,0.27-1.78,0.28c-0.18,0.04-0.59,1.49-1.23,4.34c-0.63,2.85-1.23,6.02-1.8,9.49
		c-0.57,3.47-0.85,5.95-0.86,7.42c0.13-0.04,0.81-0.11,2.05-0.22s2.04-0.1,2.43,0.01c0.38,0.11,0.59,0.38,0.63,0.79
		c0.04,0.41-0.07,0.78-0.32,1.11c-0.25,0.33-0.64,0.53-1.17,0.6c-1.32,0.17-3.31,0.51-5.95,1.02c-2.64,0.51-4.18,0.79-4.6,0.82
		C58.87,50.82,58.44,50.41,58.36,49.5z"/>
	<path class="st1" d="M78.19,48.05c-1.33,0.12-2.4-0.33-3.21-1.35c-0.81-1.01-1.3-2.45-1.46-4.31c-0.05-0.56-0.07-0.98-0.07-1.28
		c0.01-3.88,0.67-7.98,1.98-12.3c0.65-2.06,1.53-3.81,2.63-5.23c1.11-1.42,2.34-2.19,3.69-2.31c0.8-0.07,1.46,0.13,1.98,0.61
		c0.52,0.48,0.82,1.1,0.88,1.87l0.03,0.32c-0.03,2.71-0.88,5.6-2.53,8.69c-1.66,3.09-3.56,5.64-5.72,7.64
		c-0.03,0.86-0.03,1.51,0.01,1.97c0.19,2.15,0.92,3.17,2.19,3.06c1.33-0.12,2.72-1.17,4.18-3.18c0.17-0.2,0.39-0.31,0.67-0.34
		c0.28-0.02,0.55,0.06,0.83,0.27c0.27,0.2,0.42,0.47,0.45,0.8c0.03,0.33-0.1,0.68-0.39,1.06C82.52,46.52,80.47,47.85,78.19,48.05z
		 M81.04,24.64c-1.12,0.1-2.11,1.62-2.99,4.56c-0.88,2.94-1.41,5.7-1.58,8.29c1.41-1.89,2.68-4.01,3.8-6.35
		c1.12-2.35,1.63-4.26,1.53-5.75C81.74,24.85,81.49,24.6,81.04,24.64z"/>
	<path class="st1" d="M102.17,43.15c0.99-0.3,2.14-1.19,3.46-2.67c0.1-0.12,0.25-0.18,0.44-0.2c0.2-0.02,0.43,0.14,0.68,0.48
		c0.26,0.34,0.39,0.61,0.41,0.81s0,0.35-0.04,0.46c-0.75,1.16-1.75,2.09-2.97,2.79c-1.22,0.7-2.26,1.08-3.11,1.16
		c-1.54,0.13-2.38-0.63-2.53-2.31c-0.08-0.88,0.08-2.16,0.47-3.85c0.39-1.69,0.58-2.6,0.57-2.72c-0.01-0.12-0.04-0.18-0.1-0.17
		l-0.04,0c-0.44,0.23-1.29,1.36-2.57,3.42c-1.28,2.05-2.04,3.49-2.29,4.31s-0.48,1.36-0.68,1.61c-0.21,0.25-0.56,0.39-1.07,0.43
		c-0.99,0.06-1.56-0.91-1.74-2.9c-0.19-2.82,0.14-5.78,0.99-8.88c0.26-0.99,0.8-1.51,1.63-1.59c0.32-0.03,0.59,0.05,0.83,0.25
		c0.23,0.19,0.36,0.4,0.38,0.63c0.02,0.23,0.02,0.38,0,0.46c-0.46,1.81-0.78,3.82-0.96,6.03c1.17-2.51,2.37-4.46,3.59-5.83
		c1.22-1.38,2.34-2.11,3.38-2.2c0.53-0.05,1.01,0.08,1.44,0.38c0.43,0.3,0.66,0.63,0.69,1c0.05,0.58-0.17,1.94-0.67,4.05
		s-0.76,3.36-0.78,3.74c-0.02,0.38-0.02,0.7,0.01,0.98c0.02,0.28,0.12,0.41,0.29,0.38C102.04,43.17,102.14,43.15,102.17,43.15z"/>
	<path class="st1" d="M105.1,40.4c-0.17-1.96,0.31-3.85,1.45-5.65c1.14-1.8,2.63-2.78,4.46-2.94c1.09-0.09,2.02,0.13,2.79,0.68
		c0.77,0.55,1.2,1.34,1.29,2.38c0.13,1.46-0.37,2.7-1.48,3.7c-1.12,1.01-2.86,1.87-5.23,2.58c0.47,1.11,1.48,1.6,3.02,1.46
		c2.12-0.19,4.05-1.26,5.78-3.24c0.1-0.11,0.26-0.18,0.48-0.2c0.23-0.02,0.45,0.05,0.66,0.22c0.22,0.17,0.33,0.39,0.36,0.65
		c0.02,0.27-0.05,0.54-0.21,0.82c-0.58,0.99-1.56,1.94-2.92,2.85c-1.37,0.91-2.83,1.43-4.38,1.57s-2.92-0.21-4.08-1.03
		C105.91,43.44,105.25,42.16,105.1,40.4z M111.3,34.4c-0.86,0.08-1.65,0.65-2.36,1.71c-0.71,1.06-1.01,2.17-0.92,3.31
		c3.22-1.43,4.78-2.77,4.67-4.02C112.62,34.66,112.16,34.33,111.3,34.4z"/>
	<path class="st1" d="M127.97,38.53c0.35-1.56,1.09-3.36,2.24-5.41c1.15-2.05,2.13-3.12,2.95-3.19c1.17-0.1,1.79,0.3,1.87,1.2
		c0.05,0.58-0.03,1.27-0.24,2.05s-0.31,1.25-0.3,1.41c0.04,0.4,0.34,0.57,0.91,0.52c0.57-0.05,1.47-0.52,2.71-1.4
		c0.05-0.03,0.16-0.05,0.32-0.07c0.16-0.01,0.38,0.11,0.65,0.38c0.28,0.27,0.43,0.52,0.45,0.74c0.02,0.23-0.02,0.4-0.12,0.51
		c-1.47,1.57-2.96,2.42-4.47,2.56c-1.81,0.16-2.78-0.53-2.91-2.07c-0.01-0.05,0.13-0.93,0.41-2.65c-0.03,0-0.21,0.34-0.55,1.01
		c-1.07,2.18-2.06,4.96-2.97,8.33c-0.29,0.72-0.83,1.12-1.62,1.19c-1.09,0.1-1.71-0.73-1.86-2.49l-0.03-0.32
		c-0.25-2.87-0.08-5.71,0.5-8.51c0.29-1.23,0.88-1.88,1.76-1.96c0.34-0.03,0.63,0.05,0.86,0.25s0.36,0.45,0.39,0.77L127.97,38.53z"
		/>
	<path class="st1" d="M137.37,37.59c-0.17-1.96,0.31-3.85,1.45-5.65c1.14-1.8,2.63-2.78,4.46-2.94c1.09-0.1,2.02,0.13,2.79,0.68
		c0.77,0.55,1.2,1.34,1.29,2.38c0.13,1.46-0.37,2.7-1.48,3.7c-1.12,1.01-2.86,1.87-5.23,2.58c0.47,1.11,1.48,1.6,3.02,1.46
		c2.12-0.19,4.05-1.26,5.78-3.24c0.1-0.11,0.26-0.18,0.48-0.2c0.23-0.02,0.45,0.05,0.66,0.22c0.22,0.17,0.34,0.39,0.36,0.65
		c0.02,0.27-0.05,0.54-0.21,0.82c-0.58,0.99-1.56,1.94-2.92,2.85c-1.37,0.91-2.83,1.43-4.38,1.57c-1.55,0.14-2.92-0.21-4.08-1.03
		C138.18,40.63,137.52,39.34,137.37,37.59z M143.57,31.58c-0.86,0.08-1.65,0.65-2.36,1.71c-0.71,1.06-1.02,2.17-0.92,3.31
		c3.22-1.43,4.78-2.77,4.67-4.02C144.89,31.84,144.43,31.51,143.57,31.58z"/>
	<path class="st1" d="M155.44,41.39c-1.65,0.14-3.12-0.05-4.41-0.6c-1.29-0.54-2.22-1.28-2.78-2.22c0.99-2.12,2.28-5.26,3.87-9.41
		c0.35-0.86,0.93-1.33,1.73-1.4c0.4-0.04,0.75,0.06,1.05,0.29c0.3,0.23,0.47,0.54,0.5,0.94c0.03,0.37-0.02,0.7-0.15,0.98
		c-0.14,0.28-0.19,0.55-0.17,0.82s0.36,0.73,1.01,1.4c0.65,0.67,1.29,1.41,1.94,2.24c0.65,0.83,1,1.56,1.06,2.22
		c0.06,0.65-0.04,1.23-0.29,1.73c1.19-0.5,2.4-1.68,3.63-3.53c0.14-0.17,0.33-0.27,0.56-0.29c0.22-0.02,0.49,0.14,0.8,0.47
		c0.31,0.33,0.48,0.63,0.5,0.88c0.02,0.25-0.01,0.49-0.1,0.71c-0.67,1.26-1.74,2.33-3.21,3.19
		C159.49,40.67,157.64,41.19,155.44,41.39z M154.25,39.2l0.16-0.01c1.33-0.12,1.94-0.77,1.83-1.97c-0.1-1.2-0.88-2.68-2.31-4.46
		l-2.16,5.57C152.75,38.97,153.58,39.26,154.25,39.2z"/>
	<path class="st1" d="M161.43,34.16l-0.04-0.44c-0.32,0.27-0.61,0.42-0.87,0.44s-0.47-0.07-0.67-0.28c-0.19-0.21-0.3-0.48-0.33-0.81
		c-0.03-0.33,0.11-0.6,0.41-0.8c0.3-0.2,0.79-0.49,1.45-0.87c0.14-3.57,0.78-7.01,1.91-10.32c0.58-1.68,1.35-3.09,2.32-4.24
		c0.97-1.14,1.96-1.76,2.97-1.85c1.01-0.09,1.76,0.1,2.24,0.57c0.48,0.47,0.75,1.06,0.82,1.78l0.03,0.28c0.01,1.98-0.55,4-1.7,6.05
		c-1.14,2.05-2.54,3.89-4.2,5.5c2.14-0.94,3.51-1.43,4.12-1.48c0.21-0.02,0.43,0.08,0.65,0.28c0.22,0.21,0.34,0.5,0.38,0.87
		c0.03,0.37-0.17,0.62-0.62,0.74c-1.34,0.33-3.35,1.19-6.04,2.57c0.02,0.86,0.05,1.52,0.09,2c0.22,2.52,0.88,3.74,1.96,3.64
		c1.27-0.11,2.67-1.17,4.18-3.18c0.17-0.2,0.39-0.31,0.67-0.34s0.55,0.06,0.83,0.27c0.27,0.2,0.42,0.47,0.45,0.8
		s-0.1,0.68-0.39,1.06c-1.85,2.46-3.8,3.79-5.88,3.97c-1.54,0.13-2.67-0.35-3.4-1.45C162.07,37.82,161.61,36.23,161.43,34.16z
		 M168.64,18.31c-0.74,0.06-1.44,0.69-2.08,1.87c-1.2,2.17-1.92,4.85-2.15,8.06c0.05-0.06,0.34-0.44,0.88-1.16s0.88-1.16,1.01-1.33
		c0.13-0.17,0.42-0.58,0.86-1.22s0.72-1.13,0.86-1.46c0.13-0.33,0.31-0.78,0.54-1.33c0.23-0.56,0.38-1.08,0.43-1.56
		s0.06-0.91,0.03-1.29C168.98,18.51,168.85,18.32,168.64,18.31z"/>
	<path class="st1" d="M170.83,34.66c-0.17-1.96,0.31-3.85,1.45-5.65c1.14-1.8,2.63-2.78,4.46-2.94c1.09-0.09,2.02,0.13,2.79,0.68
		c0.77,0.55,1.2,1.34,1.29,2.38c0.13,1.46-0.37,2.7-1.48,3.7c-1.12,1.01-2.86,1.87-5.23,2.58c0.47,1.11,1.48,1.6,3.02,1.46
		c2.12-0.19,4.05-1.26,5.78-3.24c0.1-0.11,0.26-0.18,0.48-0.2c0.23-0.02,0.45,0.05,0.66,0.22c0.21,0.17,0.34,0.39,0.36,0.65
		c0.02,0.27-0.05,0.54-0.21,0.82c-0.58,0.99-1.56,1.94-2.92,2.85c-1.37,0.91-2.83,1.43-4.38,1.57c-1.55,0.14-2.91-0.21-4.08-1.03
		C171.64,37.7,170.98,36.42,170.83,34.66z M177.03,28.66c-0.86,0.08-1.65,0.65-2.36,1.71c-0.71,1.06-1.01,2.17-0.91,3.31
		c3.22-1.43,4.78-2.77,4.67-4.02C178.36,28.92,177.89,28.59,177.03,28.66z"/>
	<path class="st1" d="M189.97,46.08c0-0.88,0.18-2.9,0.52-6.05c0.34-3.15,0.54-4.88,0.61-5.19c0.06-0.31,0.23-1.09,0.5-2.33
		c0.27-1.24,0.63-2.46,1.09-3.65c0.37-0.94,0.79-1.71,1.24-2.3c0.46-0.59,1.08-1.11,1.87-1.57c0.79-0.46,1.75-0.73,2.88-0.83
		c1.13-0.1,2.03,0.22,2.71,0.95c0.68,0.73,1.07,1.71,1.18,2.93c0.03,0.29,0.04,0.71,0.03,1.24c1.3-0.41,2.95-1.73,4.95-3.96
		c0.15-0.09,0.31-0.15,0.47-0.16c0.16-0.01,0.32,0.08,0.49,0.28c0.16,0.2,0.26,0.47,0.29,0.82c0.03,0.35-0.09,0.64-0.37,0.88
		c-0.59,0.85-1.52,1.78-2.77,2.77c-1.25,0.99-2.42,1.67-3.52,2.03c-0.45,1.59-1.19,2.94-2.21,4.05c-1.03,1.11-2.23,1.72-3.61,1.84
		c-0.82,0.07-1.64-0.2-2.44-0.83c-0.05,0.33-0.21,1.82-0.47,4.5c-0.26,2.67-0.44,4.2-0.54,4.58c-0.1,0.38-0.39,0.75-0.87,1.1
		c-0.48,0.35-0.92,0.54-1.31,0.58l-0.31-0.37c-0.24-0.27-0.37-0.54-0.39-0.81L189.97,46.08z M196.2,35.14
		c0.69-0.06,1.32-0.38,1.9-0.97c0.58-0.59,1.03-1.32,1.35-2.21c-0.69-0.26-1.07-0.79-1.14-1.58c-0.04-0.45,0-0.82,0.12-1.12
		c0.12-0.29,0.42-0.66,0.89-1.1c0.04-0.11,0.09-0.18,0.14-0.21c-0.39-0.8-0.89-1.17-1.5-1.11c-0.61,0.05-1.13,0.27-1.57,0.66
		c-0.44,0.39-0.78,0.93-1.04,1.62c-0.26,0.69-0.45,1.31-0.58,1.86s-0.25,1.23-0.38,2.04c-0.13,0.81-0.21,1.32-0.25,1.51
		C194.82,34.99,195.51,35.2,196.2,35.14z"/>
	<path class="st1" d="M210.09,36.53c-1.33,0.12-2.4-0.33-3.21-1.35c-0.81-1.01-1.3-2.45-1.46-4.31c-0.05-0.56-0.07-0.98-0.07-1.28
		c0.01-3.88,0.67-7.98,1.98-12.3c0.65-2.06,1.53-3.81,2.63-5.23c1.11-1.42,2.34-2.19,3.69-2.31c0.8-0.07,1.46,0.13,1.98,0.61
		c0.52,0.48,0.82,1.1,0.88,1.87l0.03,0.32c-0.03,2.71-0.88,5.6-2.53,8.69c-1.66,3.09-3.56,5.64-5.71,7.64
		c-0.03,0.86-0.03,1.51,0.01,1.97c0.19,2.15,0.92,3.17,2.19,3.06c1.33-0.12,2.72-1.17,4.18-3.18c0.17-0.2,0.39-0.31,0.67-0.34
		c0.28-0.02,0.55,0.06,0.83,0.27c0.27,0.2,0.42,0.47,0.45,0.8s-0.1,0.68-0.39,1.06C214.43,35,212.38,36.33,210.09,36.53z
		 M212.95,13.12c-1.12,0.1-2.11,1.62-2.99,4.56s-1.41,5.7-1.58,8.29c1.41-1.89,2.68-4.01,3.8-6.35c1.12-2.35,1.63-4.26,1.53-5.75
		C213.65,13.33,213.4,13.08,212.95,13.12z"/>
	<path class="st1" d="M226.02,23.1c-0.69,2.87-1.05,5.57-1.1,8.09l0,0.48c0.05,0.61,0.27,0.9,0.64,0.87
		c0.85-0.13,1.88-0.99,3.11-2.6c0.32-0.3,0.6-0.45,0.82-0.47c0.22-0.02,0.51,0.11,0.86,0.39c0.35,0.28,0.53,0.55,0.55,0.81
		c0.05,0.61-0.69,1.51-2.23,2.7c-1.54,1.19-2.8,1.83-3.79,1.92c-1.57,0.14-2.43-0.58-2.6-2.14l0.01-1.25
		c-0.22,0.85-0.71,1.71-1.46,2.58s-1.7,1.35-2.84,1.45c-1.14,0.1-2.03-0.21-2.67-0.93c-0.64-0.72-1.01-1.69-1.12-2.91
		c-0.14-1.59-0.01-3.28,0.38-5.05c0.39-1.77,0.73-2.95,1-3.52c0.27-0.57,0.67-0.88,1.18-0.93c0.52-0.04,0.92,0.02,1.2,0.2
		c0.28,0.18,0.43,0.35,0.45,0.52c0.02,0.17-0.22,1.18-0.7,3.01c-0.48,1.84-0.72,3.43-0.71,4.8l0.03,0.28
		c0.11,1.3,0.62,1.91,1.53,1.83c0.72-0.06,1.42-0.55,2.1-1.45c0.68-0.9,1.17-2.1,1.47-3.6l0.73-4.08c0.19-0.9,0.4-1.48,0.63-1.74
		c0.23-0.26,0.55-0.41,0.96-0.45s0.77,0.05,1.09,0.27c0.31,0.21,0.48,0.47,0.51,0.76L226.02,23.1z"/>
	<path class="st1" d="M234.68,34.47c-1.65,0.14-3.12-0.05-4.41-0.6c-1.29-0.54-2.22-1.28-2.78-2.22c0.99-2.12,2.28-5.26,3.88-9.41
		c0.35-0.86,0.93-1.33,1.72-1.4c0.4-0.03,0.75,0.06,1.05,0.29c0.3,0.23,0.47,0.54,0.5,0.94c0.03,0.37-0.02,0.7-0.16,0.98
		c-0.14,0.28-0.19,0.55-0.17,0.82c0.02,0.27,0.36,0.73,1,1.4c0.65,0.67,1.29,1.41,1.94,2.24c0.65,0.83,1,1.56,1.06,2.22
		c0.06,0.65-0.04,1.23-0.29,1.73c1.19-0.5,2.4-1.68,3.63-3.53c0.14-0.17,0.33-0.27,0.56-0.29c0.22-0.02,0.49,0.14,0.8,0.47
		c0.31,0.33,0.47,0.63,0.5,0.88c0.02,0.25-0.01,0.49-0.1,0.71c-0.67,1.26-1.74,2.33-3.21,3.19
		C238.72,33.75,236.88,34.27,234.68,34.47z M233.48,32.28l0.16-0.01c1.33-0.12,1.94-0.77,1.84-1.97c-0.11-1.2-0.88-2.68-2.32-4.46
		L231,31.42C231.99,32.05,232.82,32.34,233.48,32.28z"/>
</g>
<g class="st0">
	<path class="st1" d="M89.44,67.3c0.01,0.16-0.01,0.32-0.08,0.49c-0.49,1.19-1.39,2.57-2.71,4.13c-1.32,1.56-2.48,2.5-3.47,2.83
		L80.66,88.1c-0.13,0.63-0.46,0.96-1,1.01c-0.53,0.05-1.02-0.05-1.45-0.3c-0.44-0.24-0.67-0.52-0.7-0.84
		c-0.01-0.08,0.26-1.26,0.79-3.54c0.54-2.28,0.96-4.35,1.29-6.19c-0.39,0.12-0.79,0.19-1.18,0.22c-1.62,0.14-2.93-0.34-3.94-1.44
		c-1.01-1.1-1.59-2.57-1.75-4.4s0.31-3.57,1.41-5.2c1.1-1.64,2.75-2.59,4.95-2.86c1.3-0.11,2.51,0.05,3.64,0.51
		c1.12,0.45,1.71,0.95,1.76,1.51c0.08,0.96-0.11,2.59-0.58,4.91c1.32-1.16,2.54-2.74,3.68-4.74c0.16-0.28,0.39-0.44,0.68-0.46
		c0.29-0.03,0.55,0.07,0.79,0.27C89.29,66.76,89.42,67.01,89.44,67.3z M79.04,76c0.13-0.01,0.41-0.06,0.83-0.15
		c0.02-0.08,0.04-0.19,0.07-0.33c0.03-0.13,0.05-0.23,0.08-0.29c-0.27-0.3-0.42-0.66-0.46-1.08c-0.04-0.43,0.04-0.83,0.23-1.23
		c0.19-0.39,0.5-0.66,0.91-0.8c0.56-2.75,0.82-4.43,0.76-5.04c-0.01-0.11-0.24-0.19-0.68-0.26c-0.45-0.07-0.87-0.08-1.27-0.05
		c-1.25,0.11-2.22,0.78-2.92,2c-0.7,1.22-0.99,2.44-0.88,3.65c0.11,1.21,0.44,2.13,1,2.76C77.29,75.81,78.06,76.08,79.04,76z"/>
	<path class="st1" d="M98.7,64.33c-0.69,2.87-1.05,5.57-1.1,8.09l0,0.48c0.05,0.61,0.27,0.9,0.64,0.87c0.84-0.13,1.88-0.99,3.1-2.6
		c0.32-0.3,0.6-0.45,0.82-0.47c0.23-0.02,0.51,0.11,0.86,0.39c0.35,0.28,0.53,0.55,0.55,0.81c0.05,0.61-0.69,1.51-2.23,2.7
		c-1.54,1.19-2.8,1.83-3.79,1.92c-1.57,0.14-2.43-0.58-2.6-2.14l0.01-1.25c-0.22,0.85-0.71,1.71-1.46,2.58s-1.7,1.35-2.84,1.45
		s-2.03-0.21-2.67-0.93s-1.01-1.69-1.12-2.91c-0.14-1.59-0.01-3.28,0.38-5.05c0.39-1.77,0.73-2.95,1-3.52
		c0.27-0.57,0.67-0.88,1.18-0.93c0.52-0.04,0.92,0.02,1.2,0.2c0.28,0.18,0.43,0.35,0.45,0.52c0.02,0.17-0.22,1.18-0.7,3.01
		c-0.48,1.84-0.72,3.43-0.71,4.8l0.02,0.28c0.11,1.3,0.62,1.91,1.53,1.83c0.72-0.06,1.42-0.55,2.1-1.45c0.68-0.9,1.17-2.1,1.47-3.6
		l0.73-4.08c0.19-0.9,0.4-1.48,0.63-1.74c0.23-0.26,0.55-0.41,0.96-0.45c0.41-0.04,0.77,0.05,1.09,0.27
		c0.31,0.21,0.48,0.47,0.51,0.76L98.7,64.33z"/>
	<path class="st1" d="M102.58,59.65c-0.45,0.04-0.71-0.38-0.79-1.26l-0.09-6.13c-0.02-0.53,0.14-0.97,0.49-1.31
		c0.35-0.34,0.74-0.53,1.18-0.56c0.44-0.04,0.83,0.05,1.17,0.28c0.34,0.22,0.53,0.5,0.55,0.81c0.03,0.32,0.02,0.53-0.02,0.64
		l-1.45,6.39C103.48,59.23,103.14,59.6,102.58,59.65z"/>
	<path class="st1" d="M115.76,58.42c-0.29,0.03-0.57-0.07-0.83-0.29l-5.13-4.09c-0.4-0.31-0.62-0.68-0.66-1.11
		c-0.04-0.42,0.11-0.83,0.46-1.2c0.34-0.38,0.75-0.59,1.23-0.63c0.48-0.04,0.9,0.18,1.26,0.65l3.92,5.32
		c0.21,0.25,0.32,0.48,0.34,0.69C116.38,58.17,116.19,58.38,115.76,58.42z M109.53,71.13c-0.21-2.39,0.46-4.6,2.01-6.62
		c1.55-2.02,3.29-3.12,5.23-3.29c1.09-0.09,1.66,0.14,1.71,0.69l0.02,0.24l0.92-0.08c0.74-0.06,1.14,0.25,1.21,0.94l0.02,0.24
		l-0.52,6.95c-0.02,0.11-0.02,0.26,0,0.44c0.06,0.64,0.31,0.94,0.76,0.9c1.01-0.09,2.13-1.08,3.35-2.98
		c0.16-0.26,0.34-0.39,0.53-0.41c0.26-0.02,0.51,0.16,0.73,0.56c0.22,0.4,0.35,0.75,0.37,1.05c0.03,0.31,0.02,0.54-0.02,0.7
		c-0.54,0.9-1.27,1.75-2.19,2.54c-0.92,0.79-1.83,1.22-2.72,1.3c-0.89,0.08-1.6-0.09-2.13-0.52c-0.53-0.42-0.89-1.03-1.06-1.81
		c0,0.03,0,0.05,0.01,0.08c-0.38,0.89-0.92,1.61-1.62,2.15c-0.73,0.54-1.62,0.86-2.69,0.96s-1.96-0.24-2.68-0.99
		C110.05,73.42,109.64,72.4,109.53,71.13z M114.16,72.29c0.72-0.06,1.37-0.52,1.95-1.37s0.95-1.77,1.11-2.75l0.69-4.56
		c-1.54,0.13-2.86,0.99-3.95,2.55c-1.09,1.57-1.58,3-1.47,4.3C112.59,71.77,113.15,72.38,114.16,72.29z"/>
	<path class="st1" d="M131.58,68.08c-0.17-1.94,0.31-3.79,1.44-5.57c1.13-1.77,2.66-2.74,4.6-2.91c1.12-0.1,2.04,0.14,2.77,0.7
		c0.73,0.56,1.13,1.26,1.21,2.08c0.07,0.82-0.12,1.6-0.56,2.34c-0.45,0.74-0.85,1.12-1.22,1.15c-0.37,0.03-0.66-0.06-0.87-0.27
		c-0.21-0.21-0.32-0.42-0.34-0.63c-0.02-0.21,0.04-0.49,0.19-0.84c0.14-0.35,0.2-0.69,0.17-1.04c-0.03-0.35-0.17-0.59-0.43-0.75
		c-0.25-0.15-0.54-0.21-0.86-0.19c-0.85,0.07-1.62,0.61-2.33,1.61c-0.7,1-0.98,2.36-0.83,4.09c0.09,0.98,0.43,1.73,1.04,2.24
		c0.61,0.51,1.36,0.72,2.27,0.64c1.88-0.17,3.81-1.54,5.78-4.12c0.15-0.17,0.31-0.27,0.5-0.29c0.19-0.02,0.38,0.08,0.57,0.29
		c0.19,0.21,0.3,0.44,0.32,0.69c0.02,0.25-0.01,0.48-0.1,0.67c-0.67,1.26-1.63,2.39-2.9,3.38c-1.27,0.99-2.79,1.57-4.59,1.73
		s-3.31-0.45-4.55-1.81C132.12,70.48,131.7,69.41,131.58,68.08z"/>
	<path class="st1" d="M143.06,69.52c-0.05-0.56-0.07-1.13-0.07-1.72c-0.16-4.56,0.32-9.33,1.44-14.3c0.59-2.49,1.48-4.58,2.68-6.28
		c1.2-1.7,2.62-2.62,4.24-2.76c0.96-0.08,1.74,0.14,2.35,0.68c0.61,0.54,0.95,1.28,1.04,2.24l0.03,0.28
		c-0.06,1.77-0.71,3.79-1.94,6.07c-1.23,2.28-3.42,5.09-6.55,8.44l-0.37,4.05c1.1-2.4,2.43-4.31,3.97-5.75s2.68-2.18,3.4-2.24
		s1.29,0.04,1.71,0.31c0.43,0.27,0.65,0.58,0.68,0.92c0.03,0.35-0.01,0.72-0.1,1.11c-0.1,0.4-0.48,1.59-1.13,3.57
		c-0.66,1.98-0.95,3.4-0.88,4.25c0.02,0.27,0.19,0.38,0.49,0.36c0.3-0.03,0.95-0.39,1.93-1.09c0.98-0.7,1.88-1.45,2.7-2.24
		c0.12-0.09,0.29-0.15,0.49-0.16c0.2-0.02,0.41,0.13,0.64,0.43c0.23,0.3,0.36,0.7,0.4,1.19c0.04,0.49-0.19,0.95-0.68,1.37
		c-2.53,2.04-4.81,3.15-6.86,3.33c-0.48,0.04-0.94-0.12-1.39-0.48s-0.71-1-0.79-1.9c-0.08-0.9,0.13-2.19,0.62-3.87
		c0.5-1.68,0.74-2.57,0.73-2.67c-0.01-0.11-0.05-0.16-0.13-0.15c-0.13,0.01-0.34,0.14-0.61,0.37c-0.92,0.8-1.86,1.95-2.83,3.44
		c-0.97,1.49-1.57,2.71-1.81,3.65s-0.46,1.55-0.64,1.82c-0.19,0.27-0.55,0.43-1.08,0.48c-0.53,0.05-0.93-0.17-1.18-0.64
		C143.31,71.15,143.15,70.45,143.06,69.52z M150.72,47.78c-1.22,0.11-2.33,1.98-3.32,5.63c-0.53,1.95-0.87,3.85-1.03,5.71
		c1.45-1.81,2.71-3.74,3.79-5.77c1.08-2.03,1.57-3.64,1.47-4.81C151.58,47.99,151.28,47.73,150.72,47.78z"/>
	<path class="st1" d="M162.29,70.9c-1.33,0.12-2.46-0.27-3.39-1.15c-0.93-0.88-1.46-2.04-1.59-3.47c-0.19-2.18,0.35-4.17,1.62-5.98
		s2.87-2.8,4.78-2.97c1.12-0.1,2.09,0.22,2.91,0.95c0.83,0.73,1.29,1.71,1.4,2.93c0.02,0.27,0.01,0.7-0.05,1.29
		c1.7-0.47,3.31-1.73,4.85-3.8c0.1-0.11,0.23-0.18,0.41-0.19c0.17-0.01,0.36,0.09,0.57,0.33c0.21,0.24,0.32,0.48,0.35,0.73
		c0.02,0.25-0.02,0.44-0.11,0.55c-1.59,2.36-3.66,4.01-6.23,4.96C167.24,68.68,165.4,70.62,162.29,70.9z M162.67,68.29
		c0.69-0.06,1.3-0.5,1.83-1.32c0.53-0.82,0.8-1.62,0.81-2.4c-1.02-0.34-1.56-0.84-1.62-1.5c-0.06-0.66,0.23-1.36,0.86-2.08
		c-0.06-0.34-0.17-0.59-0.32-0.73c-0.16-0.15-0.38-0.21-0.64-0.18c-1.01,0.09-1.82,0.75-2.44,2c-0.61,1.24-0.87,2.5-0.75,3.78
		C160.56,67.59,161.31,68.41,162.67,68.29z"/>
	<path class="st1" d="M170.95,66.09c-0.1-1.17-0.01-2.56,0.28-4.18c0.29-1.62,0.61-2.83,0.97-3.64s0.68-1.3,0.98-1.47
		c0.29-0.17,0.63-0.28,1.02-0.31c0.38-0.03,0.73,0.03,1.02,0.19s0.45,0.35,0.47,0.56c0.02,0.21-0.1,0.6-0.36,1.15
		c-0.26,0.56-0.56,1.63-0.9,3.21s-0.47,2.84-0.39,3.77c0.11,1.25,0.63,1.83,1.56,1.75c1.12-0.1,2.38-1.12,3.79-3.06
		c0.19-0.28,0.44-0.44,0.74-0.46s0.59,0.06,0.87,0.26c0.27,0.2,0.42,0.46,0.45,0.76s-0.09,0.66-0.35,1.05
		c-1.76,2.48-3.71,3.82-5.83,4c-1.2,0.1-2.18-0.18-2.96-0.84S171.05,67.26,170.95,66.09z M175.77,53.7
		c-1.44,0.12-2.21-0.44-2.32-1.68c-0.06-0.66,0.13-1.21,0.56-1.63c0.43-0.43,1.01-0.67,1.72-0.73c1.33-0.12,2.04,0.42,2.15,1.62
		c0.06,0.69-0.11,1.25-0.49,1.69C177,53.39,176.46,53.64,175.77,53.7z"/>
	<path class="st1" d="M184.92,68.92c-1.65,0.14-3.12-0.05-4.41-0.6c-1.29-0.54-2.22-1.28-2.78-2.22c0.99-2.12,2.28-5.26,3.88-9.41
		c0.35-0.86,0.93-1.33,1.72-1.4c0.4-0.04,0.75,0.06,1.05,0.29c0.3,0.23,0.47,0.54,0.5,0.94c0.03,0.37-0.02,0.7-0.16,0.98
		s-0.19,0.55-0.17,0.82s0.36,0.73,1.01,1.4s1.29,1.41,1.94,2.24c0.65,0.83,1,1.57,1.06,2.22c0.06,0.65-0.04,1.23-0.29,1.73
		c1.19-0.5,2.4-1.68,3.63-3.53c0.14-0.17,0.33-0.27,0.56-0.29c0.22-0.02,0.49,0.14,0.8,0.47c0.31,0.33,0.47,0.63,0.5,0.88
		c0.02,0.25-0.01,0.49-0.1,0.71c-0.67,1.26-1.74,2.33-3.21,3.19S187.12,68.73,184.92,68.92z M183.73,66.74l0.16-0.01
		c1.33-0.12,1.94-0.77,1.84-1.97c-0.11-1.2-0.88-2.68-2.32-4.46l-2.16,5.57C182.23,66.51,183.06,66.79,183.73,66.74z"/>
	<path class="st1" d="M190.74,64.36c-0.1-1.17-0.01-2.56,0.28-4.18c0.29-1.62,0.61-2.83,0.97-3.64s0.68-1.3,0.98-1.47
		c0.29-0.17,0.63-0.28,1.02-0.31c0.38-0.03,0.73,0.03,1.02,0.19c0.29,0.16,0.45,0.35,0.47,0.56c0.02,0.21-0.1,0.6-0.36,1.15
		c-0.26,0.56-0.56,1.63-0.9,3.21s-0.47,2.84-0.39,3.77c0.11,1.25,0.63,1.83,1.56,1.75c1.12-0.1,2.38-1.12,3.79-3.06
		c0.19-0.28,0.44-0.44,0.74-0.47c0.3-0.03,0.59,0.06,0.87,0.27c0.27,0.2,0.42,0.46,0.45,0.76c0.03,0.31-0.09,0.66-0.35,1.05
		c-1.77,2.48-3.71,3.82-5.83,4c-1.2,0.1-2.18-0.18-2.96-0.85C191.29,66.44,190.85,65.53,190.74,64.36z M195.56,51.97
		c-1.43,0.12-2.21-0.44-2.31-1.69c-0.06-0.66,0.13-1.21,0.56-1.63c0.43-0.43,1.01-0.67,1.72-0.73c1.33-0.12,2.04,0.42,2.15,1.62
		c0.06,0.69-0.11,1.25-0.49,1.69C196.79,51.66,196.25,51.91,195.56,51.97z"/>
	<path class="st1" d="M201.36,62.23c0.35-1.56,1.09-3.36,2.24-5.42c1.14-2.05,2.13-3.12,2.95-3.19c1.17-0.1,1.79,0.3,1.87,1.2
		c0.05,0.58-0.03,1.27-0.24,2.05s-0.31,1.25-0.3,1.41c0.04,0.4,0.34,0.57,0.91,0.52c0.57-0.05,1.47-0.52,2.71-1.4
		c0.05-0.03,0.16-0.05,0.31-0.07c0.16-0.01,0.38,0.12,0.66,0.38c0.28,0.27,0.43,0.52,0.45,0.74c0.02,0.23-0.02,0.4-0.12,0.51
		c-1.47,1.57-2.96,2.42-4.47,2.56c-1.81,0.16-2.78-0.53-2.91-2.07c0-0.05,0.13-0.93,0.41-2.65c-0.03,0-0.21,0.34-0.55,1.01
		c-1.07,2.18-2.05,4.96-2.96,8.33c-0.29,0.72-0.83,1.12-1.62,1.19c-1.09,0.09-1.71-0.73-1.86-2.49l-0.03-0.32
		c-0.25-2.87-0.08-5.71,0.5-8.51c0.29-1.23,0.88-1.88,1.76-1.96c0.35-0.03,0.63,0.05,0.87,0.25c0.23,0.19,0.36,0.45,0.39,0.77
		L201.36,62.23z"/>
	<path class="st1" d="M225.7,65.16c-1.49,0.13-2.29-0.54-2.42-2c-0.07-0.8,0.09-1.46,0.49-1.97s0.98-0.81,1.75-0.88
		c1.46-0.13,2.26,0.55,2.39,2.04c0.07,0.77-0.09,1.41-0.47,1.93C227.04,64.8,226.47,65.09,225.7,65.16z M231.86,40.13
		c0.04,0.5-0.19,1.65-0.7,3.43l-4.02,13.76c-0.16,0.66-0.45,1-0.87,1.04c-0.19,0.02-0.35-0.04-0.5-0.16
		c-0.14-0.12-0.22-0.26-0.24-0.42l0.03-0.16l2.35-16.78c0.21-1.28,0.9-1.97,2.07-2.07C231.15,38.67,231.77,39.12,231.86,40.13z"/>
</g>
<g id="Composant_9_7" transform="translate(0 65.591) rotate(-34)">
	<path id="Tracé_171" class="st1" d="M44.16,29.35c-2.03,0.56-4.36-0.09-6.3-0.73c-2.33-0.8-4.58-1.85-6.69-3.13
		c-4.11-2.43-7.91-5.33-11.33-8.65c-3.05-3.06-5.71-6.48-7.92-10.19c-1.22-2-2.29-4.1-3.18-6.27C8.63,0.14,8.52-0.13,8.41-0.4
		C8.33,0.53,8.25,1.46,8.13,2.39c-0.12,1.4-0.44,2.77-0.95,4.08C6.92,7.15,6.59,7.8,6.19,8.41c-0.78,1.1-1.61,1.03-1.82,0.94
		C3.09,8.77,4.02,6.97,4.33,6.07C4.75,4.62,5,3.12,5.06,1.61c0.34-3.91,0.08-8.9,2.2-12.37c0.53-0.77,1.59-0.97,2.36-0.44
		c0.17,0.12,0.32,0.27,0.44,0.44c1.73,2.44,3.77,4.65,6.07,6.56c1.25,1.07,2.59,2.03,4,2.86c1.13,0.67,2.69,1,3.43,2.15
		c0.32,0.56,0.13,1.27-0.43,1.59c-0.1,0.06-0.21,0.1-0.33,0.13c-1.47,0.49-3.08-0.55-4.33-1.25c-1.51-0.88-2.94-1.89-4.28-3.02
		c-1-0.81-1.95-1.67-2.86-2.58c0.21,1.13,0.5,2.25,0.86,3.35c0.77,2.06,1.72,4.04,2.83,5.94c1.93,3.42,4.25,6.6,6.92,9.49
		c2.92,3.29,6.18,6.25,9.73,8.84c1.96,1.34,4.03,2.52,6.19,3.51c2.12,0.96,4.38,1.58,6.7,1.83C45.06,28.67,44.57,29.24,44.16,29.35z
		"/>
</g>
</svg>
