<?xml version="1.0" encoding="utf-8"?>
<!-- Generator: Adobe Illustrator 27.5.0, SVG Export Plug-In . SVG Version: 6.00 Build 0)  -->
<svg version="1.1" id="Calque_1" xmlns="http://www.w3.org/2000/svg" xmlns:xlink="http://www.w3.org/1999/xlink" x="0px" y="0px"
	 viewBox="0 0 135.74 135.94" style="enable-background:new 0 0 135.74 135.94;" xml:space="preserve">
<style type="text/css">
	.st0{enable-background:new    ;}
	.st1{fill:#FFFFFF;}
</style>
<g class="st0">
	<path class="st1" d="M32.43,85.72c-1.38,0.12-2.59-0.4-3.63-1.57c-1.87-2.14-3.04-5.9-3.51-11.29c-0.67-7.65,0.79-13.49,4.37-17.52
		c1.83-2.06,4.12-3.26,6.87-3.61l0.76-0.07c3.43-0.3,6.22,0.27,8.38,1.7c2.16,1.43,3.35,3.39,3.56,5.87
		c0.22,2.48-0.68,4.67-2.68,6.56c-2,1.89-4.85,3.21-8.53,3.96c-0.13,0.07-0.21,0.51-0.24,1.35c-0.01,0.46-0.03,0.91-0.04,1.37
		c-0.01,0.46-0.03,1.07-0.04,1.83c-0.01,0.76-0.04,1.76-0.08,3c-0.04,1.23-0.19,2.47-0.44,3.71c-0.25,1.24-0.78,2.31-1.57,3.21
		S33.76,85.6,32.43,85.72z M32.66,82.81c0.96-0.08,1.54-0.95,1.74-2.6c0.11-0.89,0.17-1.76,0.19-2.61s0.03-2.02,0.03-3.54
		c0-1.51,0.02-2.79,0.07-3.84c-0.14-0.04-0.46-0.13-0.97-0.28c-0.51-0.14-0.85-0.25-1.03-0.33s-0.43-0.2-0.74-0.38
		c-0.31-0.17-0.53-0.39-0.66-0.64c-0.13-0.26-0.22-0.65-0.26-1.18c-0.05-0.53,0.05-0.81,0.29-0.83c0.32-0.03,0.92,0.13,1.81,0.47
		c0.89,0.34,1.45,0.5,1.69,0.47c0.11-0.57,0.25-1.48,0.4-2.72c0.16-1.25,0.38-2.35,0.67-3.31c0.36-1.1,1.04-1.7,2.05-1.79
		c0.98-0.09,1.52,0.15,1.63,0.7c-0.07,0.38-0.4,1.44-0.97,3.18c-0.57,1.74-0.81,3-0.71,3.8c2.58-0.49,4.58-1.42,6.02-2.79
		c1.43-1.37,2.07-2.95,1.91-4.74c-0.16-1.79-0.94-3.13-2.36-4.01c-1.42-0.88-3.28-1.22-5.59-1.02c-2.31,0.2-4.14,0.96-5.5,2.29
		c-1.21,1.2-2.09,2.69-2.66,4.45c-1.09,3.49-1.46,7.17-1.12,11.02C29.21,79.58,30.56,82.99,32.66,82.81z"/>
	<path class="st1" d="M49.85,74.12c0.35-1.56,1.09-3.36,2.24-5.41c1.15-2.05,2.13-3.12,2.95-3.19c1.17-0.1,1.79,0.3,1.87,1.2
		c0.05,0.58-0.03,1.27-0.24,2.05c-0.21,0.78-0.31,1.25-0.3,1.41c0.04,0.4,0.34,0.57,0.91,0.52s1.47-0.52,2.71-1.4
		c0.05-0.03,0.16-0.05,0.32-0.07c0.16-0.01,0.38,0.11,0.66,0.38c0.28,0.27,0.43,0.52,0.45,0.74c0.02,0.23-0.02,0.4-0.12,0.51
		c-1.47,1.57-2.96,2.42-4.47,2.56c-1.81,0.16-2.78-0.53-2.91-2.07c0-0.05,0.13-0.93,0.41-2.65c-0.03,0-0.21,0.34-0.55,1.01
		c-1.07,2.18-2.06,4.96-2.97,8.33c-0.29,0.72-0.83,1.12-1.62,1.19c-1.09,0.09-1.71-0.73-1.86-2.49l-0.03-0.32
		c-0.25-2.87-0.08-5.71,0.5-8.51c0.29-1.23,0.88-1.88,1.76-1.96c0.34-0.03,0.63,0.05,0.86,0.25c0.23,0.19,0.36,0.45,0.39,0.77
		L49.85,74.12z"/>
	<path class="st1" d="M59.24,73.18c-0.17-1.96,0.31-3.85,1.45-5.65c1.14-1.8,2.63-2.78,4.46-2.94c1.09-0.09,2.02,0.13,2.79,0.68
		s1.2,1.34,1.29,2.38c0.13,1.46-0.37,2.7-1.48,3.7c-1.12,1.01-2.86,1.87-5.23,2.58c0.47,1.11,1.48,1.6,3.02,1.46
		c2.12-0.19,4.05-1.26,5.78-3.24c0.1-0.12,0.26-0.18,0.48-0.2c0.23-0.02,0.45,0.05,0.66,0.22c0.22,0.17,0.33,0.39,0.36,0.65
		c0.02,0.27-0.05,0.54-0.21,0.82c-0.58,0.99-1.56,1.94-2.92,2.85c-1.37,0.91-2.83,1.43-4.38,1.57s-2.92-0.21-4.08-1.03
		C60.05,76.22,59.39,74.93,59.24,73.18z M65.44,67.18c-0.86,0.08-1.65,0.65-2.36,1.71c-0.71,1.06-1.01,2.17-0.92,3.31
		c3.22-1.43,4.78-2.77,4.67-4.02C66.76,67.44,66.3,67.1,65.44,67.18z"/>
	<path class="st1" d="M82.36,73.65c0.99-0.3,2.14-1.19,3.46-2.67c0.1-0.12,0.25-0.18,0.44-0.2s0.43,0.14,0.68,0.48
		c0.26,0.34,0.39,0.61,0.41,0.81c0.02,0.2,0,0.35-0.04,0.46c-0.75,1.16-1.74,2.09-2.97,2.79c-1.22,0.7-2.26,1.08-3.11,1.16
		c-1.54,0.13-2.38-0.63-2.53-2.31c-0.08-0.88,0.08-2.16,0.47-3.85s0.58-2.6,0.57-2.72s-0.04-0.18-0.09-0.17l-0.04,0
		c-0.43,0.23-1.29,1.36-2.57,3.42c-1.28,2.05-2.04,3.49-2.29,4.31c-0.25,0.83-0.48,1.36-0.68,1.61c-0.21,0.25-0.56,0.39-1.07,0.43
		c-0.98,0.06-1.56-0.91-1.74-2.9c-0.19-2.82,0.14-5.78,0.99-8.88c0.26-0.99,0.8-1.51,1.63-1.59c0.32-0.03,0.59,0.05,0.83,0.25
		c0.23,0.19,0.36,0.4,0.38,0.63c0.02,0.23,0.02,0.38,0,0.46c-0.46,1.81-0.78,3.81-0.96,6.02c1.17-2.51,2.37-4.46,3.59-5.83
		c1.22-1.38,2.34-2.11,3.38-2.2c0.53-0.05,1.01,0.08,1.44,0.38c0.43,0.3,0.66,0.63,0.69,1c0.05,0.58-0.17,1.93-0.67,4.05
		c-0.5,2.12-0.76,3.36-0.78,3.74c-0.02,0.38-0.02,0.7,0,0.98c0.02,0.28,0.12,0.41,0.29,0.38C82.23,73.67,82.33,73.65,82.36,73.65z"
		/>
	<path class="st1" d="M85.29,70.9c-0.17-1.96,0.31-3.85,1.45-5.65c1.14-1.8,2.63-2.78,4.46-2.94c1.09-0.09,2.02,0.13,2.79,0.68
		c0.77,0.55,1.2,1.34,1.29,2.38c0.13,1.46-0.37,2.7-1.48,3.7c-1.12,1.01-2.86,1.87-5.23,2.58c0.47,1.11,1.48,1.6,3.02,1.46
		c2.12-0.19,4.05-1.26,5.78-3.24c0.1-0.12,0.26-0.18,0.48-0.2c0.23-0.02,0.45,0.05,0.66,0.22c0.22,0.17,0.33,0.39,0.36,0.65
		c0.02,0.27-0.05,0.54-0.21,0.82c-0.58,0.99-1.56,1.94-2.92,2.85s-2.83,1.43-4.38,1.57s-2.92-0.21-4.08-1.03
		C86.1,73.94,85.45,72.66,85.29,70.9z M91.49,64.9c-0.86,0.08-1.65,0.65-2.36,1.71c-0.71,1.06-1.01,2.17-0.92,3.31
		c3.22-1.43,4.78-2.77,4.67-4.02C92.82,65.16,92.35,64.83,91.49,64.9z"/>
	<path class="st1" d="M104,61.72c0.4-0.03,0.74,0.05,1.03,0.25c0.29,0.2,0.44,0.45,0.47,0.74c0.08,0.96-0.04,1.64-0.36,2.06
		c-0.33,0.42-2.4,2.67-6.22,6.74c0.03,0.32,0.22,0.57,0.57,0.75c0.35,0.18,0.84,0.25,1.48,0.19c1.73-0.15,3.89-1.16,6.48-3.02
		c0.02-0.03,0.1-0.05,0.22-0.06c0.12-0.01,0.25,0.09,0.39,0.31c0.14,0.22,0.22,0.51,0.26,0.88c0.03,0.37-0.09,0.68-0.36,0.91
		c-2.33,2.08-4.75,3.23-7.25,3.44c-1.27,0.11-2.33-0.06-3.16-0.53c-0.83-0.46-1.29-1.15-1.37-2.07s0.35-1.86,1.28-2.82l5.5-5.54
		c-2.64,0.44-4.57,0.72-5.79,0.83c-0.16,0.01-0.33-0.12-0.52-0.42c-0.19-0.29-0.29-0.61-0.32-0.96c-0.06-0.66,0.24-1.03,0.91-1.08
		L104,61.72z"/>
</g>
<g class="st0">
	<path class="st1" d="M3.38,108.77c-0.19-2.18,0.33-4.22,1.55-6.14c1.22-1.91,2.73-2.95,4.51-3.1c0.45-0.04,0.92,0,1.42,0.12
		c0.45-8.92,2.54-13.55,6.26-13.88c0.8-0.07,1.49,0.14,2.08,0.62c0.59,0.48,0.94,1.08,1.06,1.79c0.04,0.18,0.08,0.46,0.11,0.83
		c0.2,2.34-0.26,4.8-1.4,7.39c-0.62,1.45-1.12,2.55-1.5,3.3c-0.38,0.75-1.04,1.96-1.99,3.63c-0.95,1.66-1.5,2.62-1.64,2.87
		l0.03,0.36c0.2,2.28,0.91,3.37,2.13,3.27c1.38-0.12,2.73-1.22,4.05-3.29c0.12-0.14,0.33-0.23,0.62-0.25
		c0.29-0.03,0.58,0.07,0.87,0.29c0.29,0.22,0.44,0.48,0.47,0.8c0.03,0.32-0.05,0.63-0.24,0.94c-1.63,2.5-3.58,3.85-5.87,4.05
		c-1.78,0.16-3.16-0.65-4.14-2.41c-0.61,1.95-1.92,3.02-3.94,3.19c-1.14,0.1-2.14-0.25-2.98-1.06
		C3.98,111.28,3.5,110.18,3.38,108.77z M8.21,110.31c0.74-0.07,1.32-0.47,1.72-1.21c0.4-0.74,0.66-2.06,0.76-3.94l0.21-3.07
		c-1.41,0.12-2.52,0.81-3.35,2.06c-0.83,1.25-1.18,2.59-1.05,4.03l0.04,0.44C6.72,109.83,7.28,110.39,8.21,110.31z M16.79,89.13
		c-0.88,0.08-1.52,0.85-1.92,2.33c-0.23,0.74-0.45,1.65-0.66,2.73c-0.21,1.08-0.43,3.79-0.63,8.14c0.09-0.17,0.18-0.36,0.27-0.58
		c0.05-0.06,0.33-0.57,0.83-1.54c0.5-0.97,0.95-1.87,1.33-2.71c0.38-0.84,0.78-1.95,1.19-3.36s0.58-2.6,0.49-3.59
		C17.59,89.56,17.3,89.09,16.79,89.13z"/>
	<path class="st1" d="M18.66,106.83c-0.17-1.96,0.31-3.85,1.45-5.65c1.14-1.8,2.63-2.78,4.46-2.94c1.09-0.1,2.02,0.13,2.79,0.68
		c0.77,0.55,1.2,1.34,1.29,2.38c0.13,1.46-0.37,2.7-1.48,3.7s-2.86,1.87-5.23,2.58c0.47,1.11,1.48,1.6,3.02,1.46
		c2.12-0.19,4.05-1.26,5.78-3.24c0.1-0.12,0.26-0.18,0.48-0.2s0.45,0.05,0.66,0.22c0.22,0.17,0.33,0.39,0.36,0.65
		c0.02,0.27-0.05,0.54-0.21,0.82c-0.58,0.99-1.56,1.94-2.92,2.85c-1.37,0.91-2.83,1.43-4.38,1.57c-1.55,0.13-2.92-0.21-4.08-1.03
		C19.47,109.87,18.81,108.58,18.66,106.83z M24.86,100.83c-0.86,0.08-1.65,0.65-2.36,1.71c-0.71,1.06-1.01,2.17-0.92,3.31
		c3.22-1.43,4.78-2.77,4.67-4.02C26.19,101.09,25.72,100.76,24.86,100.83z"/>
	<path class="st1" d="M36.74,110.63c-1.65,0.14-3.12-0.05-4.41-0.6c-1.29-0.54-2.22-1.28-2.78-2.22c0.99-2.12,2.28-5.26,3.88-9.41
		c0.35-0.86,0.93-1.33,1.72-1.4c0.4-0.04,0.75,0.06,1.05,0.29c0.3,0.23,0.47,0.54,0.5,0.94c0.03,0.37-0.02,0.7-0.16,0.98
		c-0.14,0.28-0.19,0.55-0.17,0.82c0.02,0.27,0.36,0.73,1,1.4s1.29,1.41,1.94,2.24c0.65,0.83,1,1.57,1.06,2.22
		c0.06,0.65-0.04,1.23-0.29,1.73c1.19-0.5,2.4-1.68,3.63-3.53c0.15-0.17,0.33-0.27,0.56-0.29s0.49,0.14,0.8,0.47
		c0.31,0.33,0.48,0.63,0.5,0.88c0.02,0.25-0.01,0.49-0.1,0.71c-0.67,1.26-1.74,2.33-3.21,3.19S38.94,110.44,36.74,110.63z
		 M35.54,108.45l0.16-0.01c1.33-0.12,1.94-0.77,1.84-1.97s-0.88-2.68-2.32-4.46l-2.16,5.57C34.05,108.22,34.88,108.51,35.54,108.45z
		"/>
	<path class="st1" d="M61.58,105.57c0.99-0.3,2.14-1.19,3.46-2.67c0.1-0.12,0.25-0.18,0.44-0.2s0.43,0.14,0.68,0.48
		c0.26,0.34,0.39,0.61,0.41,0.81c0.02,0.2,0,0.35-0.04,0.46c-0.76,1.16-1.74,2.09-2.97,2.79c-1.22,0.7-2.26,1.08-3.11,1.16
		c-1.54,0.13-2.38-0.63-2.53-2.31c-0.08-0.88,0.08-2.16,0.47-3.85s0.58-2.6,0.57-2.72s-0.04-0.18-0.09-0.17l-0.04,0
		c-0.44,0.22-1.29,1.36-2.57,3.42s-2.04,3.49-2.29,4.31c-0.25,0.83-0.48,1.36-0.68,1.61c-0.21,0.25-0.56,0.39-1.07,0.43
		c-0.98,0.06-1.56-0.91-1.74-2.9c-0.19-2.82,0.14-5.78,0.99-8.88c0.26-0.99,0.8-1.52,1.63-1.59c0.32-0.03,0.59,0.05,0.83,0.25
		c0.23,0.19,0.36,0.4,0.38,0.63c0.02,0.23,0.02,0.38,0,0.46c-0.46,1.81-0.78,3.81-0.96,6.02c1.17-2.51,2.37-4.46,3.59-5.83
		c1.22-1.38,2.34-2.11,3.38-2.2c0.53-0.05,1.01,0.08,1.44,0.38c0.43,0.3,0.66,0.63,0.69,1c0.05,0.58-0.17,1.93-0.67,4.05
		c-0.5,2.12-0.76,3.36-0.78,3.74c-0.02,0.38-0.02,0.7,0,0.98c0.02,0.28,0.12,0.41,0.29,0.38C61.46,105.59,61.56,105.57,61.58,105.57
		z"/>
	<path class="st1" d="M69.21,107.8c-1.33,0.12-2.46-0.27-3.39-1.15c-0.93-0.88-1.46-2.04-1.59-3.47c-0.19-2.18,0.35-4.17,1.62-5.98
		s2.87-2.8,4.78-2.97c1.12-0.1,2.09,0.22,2.91,0.95c0.83,0.73,1.29,1.71,1.4,2.93c0.02,0.27,0.01,0.7-0.05,1.29
		c1.7-0.47,3.31-1.73,4.85-3.8c0.1-0.11,0.23-0.18,0.41-0.19c0.17-0.02,0.36,0.09,0.57,0.33c0.21,0.24,0.32,0.48,0.35,0.73
		c0.02,0.25-0.02,0.44-0.11,0.55c-1.59,2.36-3.66,4.01-6.23,4.96C74.15,105.59,72.31,107.53,69.21,107.8z M69.58,105.19
		c0.69-0.06,1.3-0.5,1.83-1.32s0.8-1.62,0.81-2.4c-1.02-0.34-1.56-0.84-1.62-1.5c-0.06-0.66,0.23-1.36,0.86-2.08
		c-0.06-0.34-0.17-0.59-0.32-0.73c-0.16-0.15-0.37-0.21-0.64-0.18c-1.01,0.09-1.82,0.76-2.44,2c-0.61,1.24-0.86,2.5-0.75,3.78
		C67.47,104.5,68.22,105.31,69.58,105.19z"/>
	<path class="st1" d="M78.03,100.32l-0.04-0.44c-0.32,0.27-0.61,0.42-0.86,0.44c-0.25,0.02-0.48-0.07-0.67-0.28
		c-0.19-0.21-0.3-0.48-0.33-0.81c-0.03-0.33,0.11-0.6,0.41-0.8c0.3-0.2,0.79-0.49,1.45-0.87c0.14-3.57,0.78-7.01,1.91-10.32
		c0.58-1.68,1.35-3.09,2.32-4.24c0.97-1.14,1.96-1.76,2.97-1.85c1.01-0.09,1.75,0.1,2.24,0.57c0.48,0.47,0.75,1.06,0.82,1.78
		l0.02,0.28c0.01,1.98-0.55,4-1.7,6.05c-1.14,2.05-2.54,3.89-4.2,5.5c2.14-0.94,3.51-1.43,4.12-1.48c0.21-0.02,0.43,0.08,0.65,0.28
		s0.34,0.5,0.38,0.87s-0.17,0.62-0.62,0.74c-1.34,0.33-3.35,1.19-6.04,2.58c0.02,0.86,0.05,1.52,0.09,2
		c0.22,2.52,0.88,3.74,1.96,3.64c1.28-0.11,2.67-1.17,4.18-3.18c0.17-0.2,0.39-0.31,0.67-0.34c0.28-0.02,0.55,0.06,0.83,0.27
		c0.27,0.2,0.42,0.47,0.45,0.8c0.03,0.33-0.1,0.68-0.39,1.06c-1.85,2.46-3.8,3.79-5.88,3.97c-1.54,0.13-2.67-0.35-3.4-1.45
		C78.66,103.98,78.21,102.39,78.03,100.32z M85.23,84.48c-0.74,0.06-1.44,0.69-2.08,1.87c-1.2,2.17-1.92,4.85-2.15,8.06
		c0.05-0.06,0.34-0.44,0.88-1.16c0.54-0.72,0.88-1.16,1.01-1.33c0.13-0.17,0.42-0.58,0.86-1.22s0.72-1.13,0.86-1.46
		s0.31-0.78,0.55-1.33c0.23-0.55,0.37-1.08,0.43-1.56c0.05-0.49,0.06-0.92,0.03-1.29C85.57,84.68,85.45,84.49,85.23,84.48z"/>
	<path class="st1" d="M87.42,100.83c-0.17-1.96,0.31-3.85,1.45-5.65c1.14-1.8,2.63-2.78,4.46-2.94c1.09-0.09,2.02,0.13,2.79,0.68
		s1.2,1.34,1.29,2.38c0.13,1.46-0.37,2.7-1.48,3.7c-1.12,1.01-2.86,1.87-5.23,2.58c0.47,1.11,1.48,1.6,3.02,1.46
		c2.12-0.19,4.05-1.26,5.78-3.24c0.1-0.11,0.26-0.18,0.48-0.2s0.45,0.05,0.66,0.22c0.22,0.17,0.33,0.39,0.36,0.65
		c0.02,0.27-0.05,0.54-0.21,0.82c-0.58,0.99-1.56,1.94-2.92,2.85c-1.37,0.91-2.83,1.43-4.38,1.57c-1.55,0.14-2.92-0.21-4.08-1.03
		C88.24,103.87,87.58,102.58,87.42,100.83z M93.62,94.83c-0.86,0.08-1.65,0.65-2.36,1.71c-0.71,1.06-1.01,2.17-0.92,3.31
		c3.22-1.43,4.78-2.77,4.67-4.02C94.95,95.08,94.49,94.75,93.62,94.83z"/>
	<path class="st1" d="M105.5,104.63c-1.65,0.14-3.12-0.05-4.41-0.6c-1.29-0.54-2.22-1.28-2.78-2.22c0.99-2.12,2.28-5.26,3.87-9.41
		c0.35-0.86,0.93-1.33,1.73-1.4c0.4-0.04,0.75,0.06,1.05,0.29c0.3,0.23,0.47,0.54,0.5,0.94c0.03,0.37-0.02,0.7-0.16,0.98
		c-0.14,0.28-0.19,0.55-0.17,0.82c0.02,0.27,0.36,0.73,1,1.4c0.65,0.67,1.29,1.41,1.94,2.24c0.65,0.83,1,1.56,1.06,2.22
		c0.06,0.65-0.04,1.23-0.29,1.73c1.19-0.5,2.4-1.68,3.63-3.53c0.15-0.17,0.33-0.27,0.56-0.29c0.23-0.02,0.49,0.14,0.8,0.47
		c0.31,0.33,0.48,0.63,0.5,0.88c0.02,0.25-0.01,0.49-0.1,0.71c-0.67,1.26-1.74,2.33-3.21,3.19
		C109.54,103.91,107.7,104.43,105.5,104.63z M104.3,102.44l0.16-0.01c1.33-0.12,1.94-0.77,1.83-1.97s-0.88-2.68-2.32-4.46
		l-2.16,5.57C102.81,102.21,103.64,102.5,104.3,102.44z"/>
	<path class="st1" d="M125.48,102.68c-1.49,0.13-2.29-0.54-2.42-2c-0.07-0.8,0.09-1.45,0.49-1.97c0.4-0.52,0.98-0.81,1.75-0.88
		c1.46-0.13,2.26,0.55,2.39,2.04c0.07,0.77-0.09,1.41-0.47,1.93C126.83,102.32,126.25,102.61,125.48,102.68z M131.64,77.66
		c0.04,0.5-0.19,1.65-0.7,3.43l-4.02,13.76c-0.16,0.66-0.45,1-0.87,1.04c-0.19,0.02-0.35-0.04-0.5-0.16
		c-0.14-0.12-0.22-0.26-0.24-0.42l0.03-0.16l2.35-16.78c0.21-1.28,0.9-1.97,2.07-2.07C130.93,76.19,131.55,76.65,131.64,77.66z"/>
</g>
<g id="Composant_9_6" transform="translate(99.449 43.058) rotate(-82)">
	<path id="Tracé_171" class="st1" d="M1.79-14.08c2.15-0.59,4.62,0.09,6.67,0.77c2.47,0.85,4.85,1.96,7.09,3.31
		c4.35,2.57,8.38,5.65,12,9.17c3.23,3.24,6.05,6.87,8.39,10.8c1.3,2.12,2.42,4.34,3.37,6.64c0.11,0.26,0.22,0.54,0.34,0.83
		c0.08-0.98,0.17-1.97,0.3-2.95c0.13-1.48,0.46-2.94,1-4.33c0.28-0.72,0.63-1.41,1.05-2.05c0.82-1.17,1.71-1.1,1.93-0.99
		c1.36,0.61,0.37,2.51,0.05,3.47c-0.44,1.54-0.71,3.12-0.78,4.72c-0.36,4.14-0.08,9.43-2.32,13.1c-0.56,0.82-1.68,1.03-2.5,0.47
		c-0.18-0.13-0.34-0.29-0.47-0.47c-1.83-2.59-3.99-4.93-6.43-6.95c-1.32-1.13-2.74-2.15-4.24-3.03c-1.2-0.71-2.85-1.06-3.63-2.28
		c-0.34-0.59-0.14-1.35,0.46-1.68c0.11-0.06,0.22-0.11,0.34-0.13c1.56-0.52,3.26,0.58,4.58,1.33c1.6,0.94,3.12,2.01,4.54,3.2
		c1.06,0.86,2.07,1.77,3.04,2.73c-0.22-1.2-0.52-2.39-0.91-3.55c-0.82-2.18-1.82-4.28-2.99-6.29c-2.05-3.62-4.5-7-7.33-10.05
		c-3.09-3.48-6.54-6.62-10.3-9.37c-2.08-1.42-4.27-2.66-6.55-3.72c-2.25-1.02-4.64-1.67-7.09-1.93C0.84-13.35,1.36-13.96,1.79-14.08
		z"/>
</g>
</svg>
