<svg id="trait" xmlns="http://www.w3.org/2000/svg" width="213.41" height="8.376" viewBox="0 0 213.41 8.376">
  <path id="_31" data-name="31" d="M2899.633,338.952c2.947.042,5.894.146,8.839.281,1.475.068,2.941.31,4.415.4,1.556.09,3.117.074,4.676.127,2.065.07,4.129.154,6.194.228,1.2.043,2.387.173,3.583.191a18.5,18.5,0,0,0,3.3-.34.4.4,0,0,0,.257-.112c.647-.808-2.025-1.254-2.342-1.274-4.6-.284-9.193-.528-13.79-.8a193.979,193.979,0,0,0-19.716-.655c-2.913.126-5.826.259-8.733.473-3.237.239-6.466.612-9.7.856-2.95.222-5.906.383-8.862.508-3.324.141-6.651.3-9.977.288-3.488-.009-6.975-.2-10.462-.324-4.721-.174-9.44-.41-14.161-.536q-6.766-.181-13.534.087c-3.073.119-6.155.056-9.232.033-2.007-.015-4.014-.13-6.021-.155q-4.865-.061-9.729-.059-5.114.005-10.227.073c-3.736.048-7.473.023-11.209.068-3.611.044-7.214.3-10.823.364-2.334.04-4.673-.1-7,0-2.651.105-5.287-.26-7.94-.1-1.424.088-2.863-.089-4.3-.138-1.067-.036-2.135-.035-3.2-.092-1.582-.084-3.164-.319-4.741-.283-3.436.078-6.868.3-10.3.434-.935.036-1.883-.126-2.81-.035-.725.071-1.447.176-2.165.3a6.8,6.8,0,0,0-1.93.414.688.688,0,0,0-.068,1.21,3.573,3.573,0,0,0,2.151.228c.929-.09,1.875-.084,2.808-.123,2.01-.084,4.019-.174,6.029-.257l.056,0c2-.083,4.006-.234,6.007-.213,2.341.025,4.68.2,7.02.317,1.017.05,2.032.152,3.049.163,2.176.023,4.353-.022,6.529.014a14.479,14.479,0,0,1,1.99.3,23.893,23.893,0,0,1-3.767.848c-2.408.291-4.823.582-7.242.693-3.569.163-7.144.2-10.717.233-1.763.014-3.526,0-5.29-.021a42.452,42.452,0,0,0-5.148.037c-.174.02-1.221.359-.621.623a8.194,8.194,0,0,0,3.062.737q2.158.049,4.316.07c2.423.024,4.847.08,7.27.044s4.839-.136,7.257-.266c2.215-.119,4.437-.222,6.636-.5,3.589-.449,7.161-1.051,10.745-1.554a13.053,13.053,0,0,1,4.094.017c1.654.294,3.213,1,4.869,1.313a41.641,41.641,0,0,0,10.249.353,18.328,18.328,0,0,1,5.879.109,20.846,20.846,0,0,0,4.008.682c3.9.243,7.789.408,11.672.913a20.713,20.713,0,0,0,9.476-1.127,5.574,5.574,0,0,1,3.271-.049,32.39,32.39,0,0,0,3.993.753c.753.087,1.566-.284,2.3-.147a5.2,5.2,0,0,0,3.729-.994,8.87,8.87,0,0,1,9.392-.091,12.608,12.608,0,0,0,10.622.8,37.231,37.231,0,0,0,4.079-1.806,5.279,5.279,0,0,1,4.991.107,18.833,18.833,0,0,1,1.693,1.054,7.729,7.729,0,0,0,5.858,1.434,56.443,56.443,0,0,0,5.705-1.553c1.3-.4,2.545-1,3.949-.6a.525.525,0,0,0,.354-.007,8.606,8.606,0,0,1,4.931-.577q4.969.471,9.913,1.214a22.224,22.224,0,0,0,8.428-.5c3.69-.864,7.542-.385,11.283-.263q4.247.139,8.494.3c2.048.079,4.095.262,6.142.26,3.325,0,6.65-.129,9.976-.181.514-.008,1.31-.413.943-1.1-.309-.578-1.76-.694-2.3-.759a22.138,22.138,0,0,0-2.921-.077c-2.794.032-5.591.2-8.381.119-6.532-.178-13.037-.975-19.581-.9a19.494,19.494,0,0,0-5.72.641,14.866,14.866,0,0,1-6.476.34c-2.156-.284-4.3-.67-6.446-1.012,2.172-.31,4.338-.458,6.494-.7A115.642,115.642,0,0,1,2899.633,338.952Zm-80.088,3.206a5.541,5.541,0,0,1-3.633.159c-1.122-.265-2.228-.6-3.354-.844a9.625,9.625,0,0,0-5.187.766,15.521,15.521,0,0,1-6.564.815c-1.715-.167-3.423-.451-5.141-.53a83.991,83.991,0,0,1-10.783-1.138,16.363,16.363,0,0,0-5.528.023,24.979,24.979,0,0,1-9.8-.284,3.278,3.278,0,0,1-.972-.386c18.31-.784,36.607-.159,55.154-.443Zm19.08.766a4.13,4.13,0,0,1-1.791-.338c-1.539-.667-3.04-1.428-4.744-2.243l12.562.42C2842.708,341.654,2840.832,342.812,2838.625,342.924Zm27.138-1.1-.083.035a24.148,24.148,0,0,1-6.339,1.46c-1.57.21-2.677-1-3.833-2.01a104.591,104.591,0,0,1,11.68-.167c-.243.125-.486.248-.732.365C2866.226,341.613,2866,341.719,2865.763,341.821Z" transform="translate(-2717.592 -336.92)" fill="#fed831"/>
</svg>
